<svg width="24" height="23" viewBox="0 0 24 23" fill="none" xmlns="http://www.w3.org/2000/svg">
<path d="M0 4.66856C0 2.09018 2.09019 0 4.66856 0H18.6743C21.2526 0 23.3428 2.09019 23.3428 4.66856V18C23.3428 20.5784 21.2526 22.6686 18.6742 22.6686H4.66855C2.09018 22.6686 0 20.5784 0 18V4.66856Z" fill="#E5E5E5"/>
<g clip-path="url(#clip0_1439_2676)">
<path d="M16.2743 8.3569H14.682C14.498 8.3569 14.3215 8.27835 14.1975 8.13994L13.5516 7.41426C13.454 7.30578 13.3188 7.24219 13.1723 7.24219C13.0258 7.24219 12.8906 7.30578 12.793 7.41426L12.2372 8.03895C12.0569 8.24094 11.794 8.36064 11.5236 8.36064H2.80717C2.55931 9.06014 2.39783 9.80453 2.33398 10.5788H10.5622C10.7087 10.5788 10.8439 10.519 10.9453 10.4143L11.7114 9.6175C11.8053 9.5165 11.9405 9.46039 12.0757 9.46039H12.1057C12.2522 9.46039 12.3874 9.52398 12.485 9.63246L13.131 10.3581C13.2549 10.4966 13.4314 10.5751 13.6154 10.5751H20.3302C20.2664 9.80453 20.1049 9.0564 19.857 8.35316L16.2743 8.3569Z" fill="black"/>
<path d="M7.31286 15.246C7.45933 15.246 7.59452 15.1861 7.69592 15.0814L8.46204 14.2846C8.55968 14.1836 8.69112 14.1275 8.83008 14.1275H8.86012C9.00658 14.1275 9.14554 14.1911 9.23942 14.2959L9.88537 15.0215C10.0093 15.16 10.1858 15.2385 10.3698 15.2385H19.4731C19.8148 14.5353 20.0627 13.7834 20.2129 12.9941H11.4739C11.2899 12.9941 11.1134 12.9156 10.9895 12.7772L10.3435 12.059C10.2459 11.9505 10.1107 11.8906 9.96423 11.8906C9.81777 11.8906 9.67881 11.9542 9.58493 12.059L9.02912 12.6836C8.84885 12.8894 8.58597 13.0053 8.31182 13.0053H2.45703C2.60725 13.7946 2.85511 14.5465 3.19686 15.2497L7.31286 15.246Z" fill="black"/>
<path d="M13.7685 5.92875C13.9149 5.92875 14.0501 5.8689 14.1515 5.76416L14.9176 4.9674C15.0115 4.8664 15.1467 4.81029 15.2857 4.81029H15.3157C15.4622 4.81029 15.5974 4.87388 15.695 4.98236L16.341 5.71179C16.4649 5.85019 16.6414 5.92875 16.8254 5.92875H18.5567C16.908 3.74421 14.2867 2.33398 11.3349 2.33398C8.38311 2.33398 5.75803 3.74421 4.10938 5.92875H13.7685Z" fill="black"/>
<path d="M10.2961 17.4723H7.93013C7.74612 17.4723 7.56961 17.3937 7.44568 17.2553L6.79974 16.5297C6.70209 16.4212 6.5669 16.3613 6.42043 16.3613C6.27397 16.3613 6.13502 16.4249 6.04113 16.5297L5.48532 17.1543C5.30506 17.3601 5.04217 17.476 4.76802 17.476H4.73047C6.37912 19.2341 8.7263 20.3376 11.3364 20.3376C13.9464 20.3376 16.2898 19.2341 17.9422 17.476L10.2961 17.4723Z" fill="black"/>
</g>
<defs>
<clipPath id="clip0_1439_2676">
<rect width="18" height="18" fill="white" transform="translate(2.33398 2.33398)"/>
</clipPath>
</defs>
</svg>
