<svg width="24" height="23" viewBox="0 0 24 23" fill="none" xmlns="http://www.w3.org/2000/svg">
<path d="M0 4.66856C0 2.09018 2.09019 0 4.66856 0H18.6743C21.2526 0 23.3428 2.09019 23.3428 4.66856V18C23.3428 20.5784 21.2526 22.6686 18.6742 22.6686H4.66855C2.09018 22.6686 0 20.5784 0 18V4.66856Z" fill="#E5E5E5"/>
<g clip-path="url(#clip0_1439_2680)">
<path d="M16.4141 2.33398H6.25391C4.08899 2.33398 2.33398 4.08899 2.33398 6.25391V16.4141C2.33398 18.579 4.08899 20.334 6.25391 20.334H16.4141C18.579 20.334 20.334 18.579 20.334 16.4141V6.25391C20.334 4.08899 18.579 2.33398 16.4141 2.33398Z" fill="#00F0FF"/>
<path d="M10.6404 9.43H14.0013L17.4395 12.8462C17.6631 13.0684 17.6643 13.4299 17.4418 13.6533L13.0325 18.0848H9.57031L10.617 17.0672L14.46 13.2485L10.6658 9.42969" fill="#1B1B1B"/>
<path d="M12.0222 13.2391H8.66134L5.22315 9.82284C4.99949 9.60063 4.99835 9.23919 5.22086 9.01581L9.63014 4.58398H13.0923L12.0456 5.60158L8.20261 9.42031L11.9968 13.2391" fill="#1B1B1B"/>
</g>
<defs>
<clipPath id="clip0_1439_2680">
<rect width="18" height="18" fill="white" transform="translate(2.33398 2.33398)"/>
</clipPath>
</defs>
</svg>
