<svg width="24" height="23" viewBox="0 0 24 23" fill="none" xmlns="http://www.w3.org/2000/svg">
<path d="M0 4.66856C0 2.09018 2.09019 0 4.66856 0H18.6743C21.2526 0 23.3428 2.09019 23.3428 4.66856V18C23.3428 20.5784 21.2526 22.6686 18.6742 22.6686H4.66855C2.09018 22.6686 0 20.5784 0 18V4.66856Z" fill="#E5E5E5"/>
<g clip-path="url(#clip0_1437_2571)">
<path d="M11.334 20.334C16.3045 20.334 20.334 16.3045 20.334 11.334C20.334 6.36342 16.3045 2.33398 11.334 2.33398C6.36342 2.33398 2.33398 6.36342 2.33398 11.334C2.33398 16.3045 6.36342 20.334 11.334 20.334Z" fill="#FDDE00"/>
<path d="M6.95255 8.69766C6.95255 8.69766 6.48849 9.28477 6.64317 11.9391C6.64317 11.9391 5.62716 14.5406 5.97169 15.8695C6.31622 17.1949 7.65919 17.1281 7.65919 17.1281C7.65919 17.1281 9.81427 19.023 11.4666 17.3531C13.1225 15.6797 10.0885 9.20039 10.0885 9.20039L9.7088 6.96094C9.7088 6.96094 9.29396 7.28789 9.34669 9.44297C9.39942 11.598 8.50294 10.0793 8.50294 10.0793L6.95255 8.69766Z" fill="#3C2D0C"/>
<path d="M7.12575 11.0431L6.55622 12.6462L6.3488 13.7677C6.3488 13.7677 5.64216 16.2673 8.55661 16.2321C8.55661 16.2321 10.8312 18.2677 12.3148 16.9036L12.7121 16.4712L13.4011 15.4024L14.5402 12.0063C14.5402 12.0063 14.1781 9.67899 11.8859 8.71571C11.8859 8.71571 11.6961 8.61375 11.3515 8.75086C11.3515 8.75086 10.4023 6.61336 9.80114 6.87352C9.80114 6.87352 9.28434 7.14774 9.73083 9.2536L8.92223 9.61571C8.92223 9.61571 8.0363 7.93524 7.21716 8.27274C6.45426 8.5786 7.12575 11.0431 7.12575 11.0431Z" fill="#E78C19"/>
<path d="M10.0717 7.91944L10.1421 8.85108C10.1421 8.85108 10.1948 9.38545 10.7608 9.19561C10.9225 9.14288 11.0631 9.03038 11.0491 8.84756C11.0385 8.71046 10.9436 8.58389 10.8803 8.46788C10.7643 8.24639 10.6694 8.01085 10.5323 7.79639C10.462 7.68741 10.3178 7.44483 10.1596 7.47295C10.1596 7.47295 10.0401 7.4378 10.0717 7.91944Z" fill="#EFB99D"/>
<path d="M7.58378 8.9676C7.59432 8.96057 7.82635 8.66877 8.308 9.37893C8.78964 10.0891 8.74042 9.99768 8.74042 9.99768C8.74042 9.99768 9.00057 10.2824 8.46971 10.6481C8.3537 10.7324 8.22714 10.8028 8.09354 10.859C8.00917 10.8906 7.92128 10.9082 7.83339 10.9082C7.73143 10.9047 7.68573 10.852 7.66112 10.7571C7.58026 10.4477 7.48886 10.1383 7.44315 9.8219C7.408 9.5758 7.33768 9.1258 7.58378 8.9676Z" fill="#EFB99D"/>
<path d="M13.1801 10.3988C13.1801 10.5676 12.934 10.7047 12.6281 10.7047C12.3223 10.7047 12.0762 10.5676 12.0762 10.3988C12.0762 10.2301 12.3293 9.98047 12.6316 9.98047C12.934 9.98047 13.1801 10.2301 13.1801 10.3988Z" fill="#FBFBFB"/>
<path d="M9.99654 11.719C10.1601 11.4301 10.1419 11.1106 9.95606 11.0054C9.77018 10.9002 9.48694 11.0492 9.32342 11.3381C9.1599 11.6271 9.17803 11.9466 9.36391 12.0518C9.54978 12.157 9.83302 12.008 9.99654 11.719Z" fill="#FBFBFB"/>
<path d="M10.7781 13.1174L12.2863 12.3334C12.2863 12.3334 14.1636 11.3525 14.6206 12.1084C15.0777 12.8642 14.6206 14.0209 14.6206 14.0209C14.6206 14.0209 14.4238 15.3744 13.0421 15.4939L12.3003 15.5959L11.3511 15.6205C11.3511 15.6205 9.82533 15.7084 8.70384 14.8787L8.34876 14.4463C8.34876 14.4463 7.63509 13.4654 8.13431 12.7588C8.63353 12.0521 10.3421 13.1455 10.3421 13.1455C10.3421 13.1455 10.5812 13.2756 10.7781 13.1174Z" fill="#FBFBFB"/>
<path d="M14.2 9.20664C14.4 9.20664 14.5621 9.04452 14.5621 8.84453C14.5621 8.64454 14.4 8.48242 14.2 8.48242C14 8.48242 13.8379 8.64454 13.8379 8.84453C13.8379 9.04452 14 9.20664 14.2 9.20664Z" fill="#E72D36"/>
<path d="M13.3973 8.31797C13.5973 8.31797 13.7594 8.15585 13.7594 7.95586C13.7594 7.75587 13.5973 7.59375 13.3973 7.59375C13.1973 7.59375 13.0352 7.75587 13.0352 7.95586C13.0352 8.15585 13.1973 8.31797 13.3973 8.31797Z" fill="#E72D36"/>
<path d="M12.1141 8.03281C12.3141 8.03281 12.4762 7.87069 12.4762 7.6707C12.4762 7.47072 12.3141 7.30859 12.1141 7.30859C11.9141 7.30859 11.752 7.47072 11.752 7.6707C11.752 7.87069 11.9141 8.03281 12.1141 8.03281Z" fill="#E72D36"/>
<path d="M12.3992 5.10352C12.4766 6.17227 12.3219 7.13906 12.0617 7.13906C11.8016 7.13906 11.457 6.09492 11.457 5.10352C11.457 4.6957 11.6715 4.62891 11.9316 4.62891C12.1953 4.62891 12.3711 4.6957 12.3992 5.10352Z" fill="#E72D36"/>
<path d="M14.7976 5.76876C14.4039 6.76368 13.8449 7.56876 13.6129 7.45626C13.3808 7.34376 13.5215 6.25391 13.9539 5.36094C14.1332 4.9918 14.3547 5.02696 14.5867 5.13946C14.8187 5.25548 14.9488 5.38907 14.7976 5.76876Z" fill="#E72D36"/>
<path d="M16.5124 7.70933C15.6441 8.33863 14.7441 8.71831 14.607 8.49683C14.4698 8.27535 15.1765 7.43511 16.0167 6.91128C16.3648 6.69683 16.5335 6.84449 16.6706 7.06245C16.8042 7.28394 16.8429 7.46675 16.5124 7.70933Z" fill="#E72D36"/>
<path d="M10.7086 12.0655C10.677 12.069 10.6453 12.0726 10.6137 12.0761C10.6172 12.0866 10.6207 12.0972 10.6207 12.1112C10.6207 12.2202 10.4484 12.3116 10.234 12.3187C10.234 12.3292 10.2305 12.3362 10.234 12.3468C10.2445 12.4804 10.4766 12.5718 10.7473 12.5507C11.0215 12.5296 11.2359 12.403 11.2254 12.2694C11.2113 12.1358 10.9828 12.0444 10.7086 12.0655Z" fill="black"/>
<path d="M12.6129 11.5948C12.5812 11.5983 12.5496 11.6019 12.518 11.6054C12.5215 11.6159 12.525 11.6265 12.525 11.6405C12.525 11.7495 12.3527 11.8409 12.1383 11.8479C12.1383 11.8585 12.1348 11.8655 12.1383 11.8761C12.1488 12.0097 12.3809 12.1011 12.6516 12.08C12.9258 12.0589 13.1402 11.9323 13.1297 11.7987C13.1191 11.6651 12.8871 11.5737 12.6129 11.5948Z" fill="black"/>
<path d="M13.2395 12.1539C13.2395 12.1539 12.4836 12.3754 12.5293 12.8008C12.575 13.2262 13.4856 13.4476 13.4856 13.4476C13.4856 13.4476 13.7317 13.5461 13.8723 13.3105C14.0129 13.0785 14.2204 12.7621 14.1641 12.3086C14.1641 12.3086 14.1465 11.9711 13.2395 12.1539Z" fill="black"/>
</g>
<defs>
<clipPath id="clip0_1437_2571">
<rect width="18" height="18" fill="white" transform="translate(2.33398 2.33398)"/>
</clipPath>
</defs>
</svg>
