<svg width="24" height="23" viewBox="0 0 24 23" fill="none" xmlns="http://www.w3.org/2000/svg">
<path d="M0 4.66856C0 2.09018 2.09019 0 4.66856 0H18.6743C21.2526 0 23.3428 2.09019 23.3428 4.66856V18C23.3428 20.5784 21.2526 22.6686 18.6742 22.6686H4.66855C2.09018 22.6686 0 20.5784 0 18V4.66856Z" fill="#E5E5E5"/>
<g clip-path="url(#clip0_1439_2688)">
<path d="M19.1407 15.8716C18.9366 18.2666 16.0803 20.2834 11.7957 20.1825C7.76617 20.0817 4.93529 18.4178 4.73127 16.0229C4.70576 15.7203 4.73127 15.4178 4.75677 15.0901C4.88429 14.1573 5.21583 13.275 5.70039 12.4682L6.00643 12.5943C6.79704 12.2918 7.61315 12.0649 8.45476 11.9136C9.5514 11.7624 10.6735 11.7372 11.7702 11.8128C12.8668 11.7372 13.989 11.7624 15.0856 11.9136C15.9272 12.0649 16.7433 12.2918 17.534 12.5943L17.84 12.4682L18.044 12.3674C18.5286 13.1741 18.8601 14.0565 19.0386 14.9893C19.0897 15.2666 19.1152 15.5691 19.0897 15.8464" fill="#F4A427"/>
<path d="M19.1407 15.8705C18.9366 18.2402 16.1058 20.1814 11.7957 20.1562C7.76617 20.0554 4.93529 18.3915 4.73127 15.9965C4.70576 15.694 4.73127 15.3915 4.75677 15.0638C5.19033 14.9629 5.62388 14.9629 6.05744 15.0385C6.87355 15.1646 7.33261 15.6688 7.91919 15.9209C8.25073 16.0722 8.58227 15.8201 8.88831 15.5427C9.70442 14.7612 10.8011 14.3075 11.9232 14.2822C13.0709 14.257 14.0145 14.7108 15.0091 15.6184C15.2131 15.8201 15.4937 15.9461 15.7742 15.9209C16.0293 15.8453 16.2843 15.7192 16.4883 15.5427C17.2534 15.0385 18.1715 14.8369 19.0642 14.9629C19.1407 15.2906 19.1662 15.568 19.1407 15.8705Z" fill="white"/>
<path d="M7.28223 9.97083C7.00169 10.2481 6.64464 10.4498 6.26209 10.5255L6.10907 10.5507C5.95605 10.6011 5.80303 10.6263 5.62451 10.6263C5.599 10.6263 5.548 10.6263 5.52249 10.6263C5.44598 10.6011 5.34397 10.5759 5.26746 10.5507C4.98692 10.4246 4.73189 10.2734 4.50236 10.0717C4.0433 9.69352 3.60974 9.26495 3.2782 8.76075C1.87552 6.74394 2.30907 4.02125 4.24733 2.50865C4.37484 2.43302 4.52786 2.43302 4.62988 2.55907C4.68088 2.6347 4.70639 2.71033 4.68088 2.78596C4.50236 3.59268 4.34934 4.85318 5.11444 5.93722C5.77753 6.84478 7.15471 7.72713 7.99632 7.72713C8.17484 8.73554 7.89431 9.41621 7.28223 9.97083Z" fill="#F79422"/>
<path d="M7.28223 9.97083C7.00169 10.2481 6.64464 10.4498 6.26209 10.5255L6.10907 10.5507C5.95605 10.6011 5.80303 10.6263 5.62451 10.6263C5.599 10.6263 5.548 10.6263 5.52249 10.6263C5.44598 10.6011 5.34397 10.5759 5.26746 10.5507C4.98692 10.4246 4.73189 10.2734 4.50236 10.0717C4.0433 9.69352 3.60974 9.26495 3.2782 8.76075C1.87552 6.74394 2.30907 4.02125 4.24733 2.50865C4.37484 2.43302 4.52786 2.43302 4.62988 2.55907C4.68088 2.6347 4.70639 2.71033 4.68088 2.78596C4.50236 3.59268 4.34934 4.85318 5.11444 5.93722C5.77753 6.84478 7.15471 7.72713 7.99632 7.72713C8.17484 8.73554 7.89431 9.41621 7.28223 9.97083Z" stroke="#221F1F" stroke-linejoin="round"/>
<path d="M10.9551 6.49219L10.6235 9.71908H10.598C10.088 9.79471 9.39938 9.89555 8.45576 10.0468C7.58865 10.1729 6.41549 10.7779 5.7269 11.1813L5.65039 10.6519C5.80341 10.6266 5.98193 10.6014 6.13495 10.5762L6.28797 10.551C6.67052 10.4754 7.02757 10.2737 7.30811 9.99639C7.89469 9.41656 8.20073 8.76109 7.9967 7.72748L8.09871 7.75269C8.40475 7.42496 8.7618 7.17286 9.16985 6.97118C9.70542 6.66866 10.3175 6.5174 10.9551 6.49219Z" fill="#5A595C"/>
<path d="M10.9551 6.49219L10.6235 9.71908H10.598C10.088 9.79471 9.39938 9.89555 8.45576 10.0468C7.58865 10.1729 6.41549 10.7779 5.7269 11.1813L5.65039 10.6519C5.80341 10.6266 5.98193 10.6014 6.13495 10.5762L6.28797 10.551C6.67052 10.4754 7.02757 10.2737 7.30811 9.99639C7.89469 9.41656 8.20073 8.76109 7.9967 7.72748L8.09871 7.75269C8.40475 7.42496 8.7618 7.17286 9.16985 6.97118C9.70542 6.66866 10.3175 6.5174 10.9551 6.49219Z" stroke="#221F1F" stroke-linejoin="round"/>
<path d="M18.4011 12.2918L18.1971 12.3926L17.9931 12.4935L17.687 12.6195C16.8964 12.317 16.0803 12.0901 15.2387 11.9388C14.1421 11.7371 13.0454 11.6363 11.9233 11.6363C10.8011 11.6363 9.70449 11.7119 8.60784 11.9388C7.76623 12.0901 6.95012 12.317 6.15952 12.6195C6.05751 12.5691 5.95549 12.5187 5.85348 12.4935L5.41992 12.2918C5.44543 11.9388 5.41992 11.7371 5.41992 11.3842C5.49643 11.3338 5.62395 11.2582 5.75147 11.1825L5.77697 11.1573C6.44006 10.754 7.61321 10.1741 8.48032 10.0229C9.42395 9.8716 10.087 9.77076 10.6226 9.69513C10.9541 9.66992 11.3112 9.66992 11.6682 9.66992C12.2038 9.66992 12.6884 9.66992 13.1729 9.69513C13.683 9.77076 14.3716 9.8716 15.3407 10.0229C16.2333 10.1489 17.4065 10.754 18.0951 11.1573H18.1206C18.2481 11.2329 18.3501 11.2834 18.4266 11.359C18.4011 11.7371 18.3756 11.9388 18.4011 12.2918Z" fill="#929497"/>
<path d="M18.4011 12.2918L18.1971 12.3926L17.9931 12.4935L17.687 12.6195C16.8964 12.317 16.0803 12.0901 15.2387 11.9388C14.1421 11.7624 13.0454 11.6615 11.9233 11.6615C10.8011 11.6615 9.70449 11.7371 8.60784 11.9388C7.76623 12.0901 6.95012 12.317 6.15952 12.6195C6.05751 12.5691 5.95549 12.5187 5.85348 12.4935L5.41992 12.2918C5.44543 11.9388 5.41992 11.7371 5.41992 11.3842C5.49643 11.3338 5.62395 11.2582 5.75147 11.1825L5.77697 11.1573C6.44006 10.754 7.61321 10.1741 8.48032 10.0229C9.42395 9.8716 10.087 9.77076 10.6226 9.69513C10.9541 9.66992 11.3112 9.66992 11.6682 9.66992C12.2038 9.66992 12.6884 9.66992 13.1729 9.69513C13.683 9.77076 14.3716 9.8716 15.3407 10.0229C16.2333 10.1489 17.4065 10.754 18.0951 11.1573H18.1206C18.2481 11.2329 18.3501 11.2834 18.4266 11.359C18.4011 11.7371 18.3756 11.9388 18.4011 12.2918Z" stroke="#221F1F" stroke-linecap="round" stroke-linejoin="round"/>
<path d="M13.148 9.72057C12.6889 9.69536 12.1789 9.67015 11.6433 9.69536C11.2862 9.69536 10.9292 9.72057 10.5977 9.72057H10.6232L10.9547 6.49368L11.0312 5.83822C11.2862 5.68696 11.5923 5.61133 11.8728 5.61133H11.9238C12.2299 5.61133 12.5104 5.68696 12.7654 5.83822L12.842 6.49368V6.51889L13.148 9.72057Z" fill="#929497"/>
<path d="M13.148 9.72057C12.6889 9.69536 12.1789 9.67015 11.6433 9.69536C11.2862 9.69536 10.9292 9.72057 10.5977 9.72057H10.6232L10.9547 6.49368L11.0312 5.83822C11.2862 5.68696 11.5923 5.61133 11.8728 5.61133H11.9238C12.2299 5.61133 12.5104 5.68696 12.7654 5.83822L12.842 6.49368V6.51889L13.148 9.72057Z" stroke="#221F1F" stroke-linecap="round" stroke-linejoin="round"/>
<ellipse cx="18.1978" cy="12.3917" rx="0.127517" ry="0.12605" fill="#221F1F"/>
<path d="M19.1405 15.8953C18.9365 18.2902 15.8506 20.2062 11.7956 20.2062C7.76605 20.1054 4.93518 18.4415 4.75666 16.0465C4.73115 15.744 4.75666 15.4415 4.78216 15.1138C4.90968 14.181 5.24122 13.2986 5.72579 12.4919L6.03183 12.618C6.82243 12.3154 7.63854 12.0885 8.48015 11.9373C9.57679 11.7356 10.6734 11.66 11.7956 11.6348C12.9177 11.6348 14.0144 11.7356 15.111 11.9373C15.9526 12.0885 16.7687 12.3154 17.5593 12.618L17.8909 12.4919L18.0949 12.3911C18.5795 13.1978 18.911 14.0801 19.0895 15.0129C19.1661 15.3154 19.1661 15.618 19.1405 15.8953Z" stroke="#221F1F" stroke-linecap="round" stroke-linejoin="round"/>
<path d="M20.3906 8.76163C20.0335 9.24062 19.6255 9.6944 19.1409 10.0726C18.9114 10.2742 18.6563 10.4255 18.3758 10.5515L18.2483 10.602L18.1718 10.6272C17.9932 10.6776 17.8912 10.6272 17.5597 10.5768L17.4067 10.5515C17.0241 10.4759 16.6671 10.2742 16.3865 9.99692C15.8 9.41709 15.4939 8.76163 15.6979 7.72802C16.5141 7.75323 17.9167 6.87087 18.5798 5.9381C19.3194 4.85407 19.1664 3.59356 18.9879 2.78684C18.9624 2.63558 19.0389 2.50953 19.1919 2.45911C19.2684 2.4339 19.3704 2.45911 19.4214 2.50953C21.3597 4.02213 21.7932 6.77003 20.3906 8.76163Z" fill="#F79422"/>
<path d="M20.3906 8.76163C20.0335 9.24062 19.6255 9.6944 19.1409 10.0726C18.9114 10.2742 18.6563 10.4255 18.3758 10.5515L18.2483 10.602L18.1718 10.6272C17.9932 10.6776 17.8912 10.6272 17.5597 10.5768L17.4067 10.5515C17.0241 10.4759 16.6671 10.2742 16.3865 9.99692C15.8 9.41709 15.4939 8.76163 15.6979 7.72802C16.5141 7.75323 17.9167 6.87087 18.5798 5.9381C19.3194 4.85407 19.1664 3.59356 18.9879 2.78684C18.9624 2.63558 19.0389 2.50953 19.1919 2.45911C19.2684 2.4339 19.3704 2.45911 19.4214 2.50953C21.3597 4.02213 21.7932 6.77003 20.3906 8.76163Z" stroke="#221F1F" stroke-linejoin="round"/>
<path d="M18.1721 10.6266L18.0701 11.1813C17.3815 10.7779 16.2084 10.1729 15.3157 10.0468C14.3466 9.89555 13.6835 9.79471 13.148 9.71908L12.8164 6.49219C13.403 6.5174 13.9896 6.69387 14.5251 6.97118C14.9332 7.17286 15.2902 7.45017 15.5963 7.75269L15.6983 7.72748C15.4943 8.73588 15.8003 9.41656 16.3869 9.99639C16.6674 10.2737 17.0245 10.4754 17.407 10.551C17.4325 10.551 17.5345 10.6014 17.56 10.6014C17.7641 10.6771 17.9681 10.6771 18.1721 10.6266Z" fill="#5A595C"/>
<path d="M18.1721 10.6266L18.0701 11.1813C17.3815 10.7779 16.2084 10.1729 15.3157 10.0468C14.3466 9.89555 13.6835 9.79471 13.148 9.71908L12.8164 6.49219C13.403 6.5174 13.9896 6.69387 14.5251 6.97118C14.9332 7.17286 15.2902 7.45017 15.5963 7.75269L15.6983 7.72748C15.4943 8.73588 15.8003 9.41656 16.3869 9.99639C16.6674 10.2737 17.0245 10.4754 17.407 10.551L17.56 10.5762C17.8916 10.6266 17.9936 10.6771 18.1721 10.6266Z" stroke="#221F1F" stroke-linejoin="round"/>
<path d="M12.8169 6.49219H12.7148" stroke="#221F1F" stroke-linejoin="round"/>
<path d="M18.1978 10.502C18.3764 10.7036 18.3253 11.0062 18.1213 11.1826C18.0958 11.2078 18.0958 11.2078 18.0703 11.233" fill="#F79422"/>
<path d="M18.1978 10.502C18.3764 10.7036 18.3253 11.0062 18.1213 11.1826C18.0958 11.2078 18.0958 11.2078 18.0703 11.233" stroke="#221F1F" stroke-miterlimit="10"/>
<path d="M5.62477 10.502C5.44624 10.7036 5.49725 11.0062 5.70128 11.1826C5.72678 11.2078 5.72678 11.2078 5.75228 11.233" fill="#F79422"/>
<path d="M5.62477 10.502C5.44624 10.7036 5.49725 11.0062 5.70128 11.1826C5.72678 11.2078 5.72678 11.2078 5.75228 11.233" stroke="#221F1F" stroke-miterlimit="10"/>
<path d="M10.9551 16.854C11.1336 16.9044 11.3376 16.8792 11.5162 16.7783C11.7967 16.6775 11.9752 16.4002 11.9497 16.0977C11.9242 16.4002 12.1027 16.6775 12.3833 16.7783C12.5618 16.854 12.7403 16.8792 12.9188 16.854" stroke="#171717" stroke-linecap="round" stroke-linejoin="round"/>
<path d="M12.9446 15.2413C12.9446 15.5438 12.4855 15.9471 11.9244 15.9471C11.3634 15.9471 10.9043 15.5438 10.9043 15.2413C10.9043 14.9387 11.3634 14.8379 11.9244 14.8379C12.4855 14.8379 12.9446 14.9639 12.9446 15.2413Z" fill="#171717"/>
<path d="M12.332 15.1393C12.332 15.215 12.1279 15.3158 11.8984 15.3158C11.6689 15.3158 11.4648 15.215 11.4648 15.1645C11.4648 15.1141 11.6689 15.1141 11.8984 15.1141C12.1279 15.1141 12.332 15.0637 12.332 15.1393Z" fill="white"/>
<path d="M10.3164 16.0977C10.2909 16.4506 10.5204 16.7531 10.8775 16.8287H10.954" stroke="#171717" stroke-linecap="round" stroke-linejoin="round"/>
<path d="M11.9492 15.7441C11.9492 15.8702 11.9492 15.971 11.9492 16.0971" stroke="#171717" stroke-linecap="round" stroke-linejoin="round"/>
<path d="M12.9434 16.8541H13.0199C13.3769 16.7785 13.6319 16.476 13.5809 16.123" stroke="#171717" stroke-linecap="round" stroke-linejoin="round"/>
<path d="M19.4219 2.50977C21.3601 4.02237 21.7682 6.74506 20.3655 8.73666" stroke="#221F1F" stroke-linejoin="round"/>
<path d="M7.28223 9.97083C7.00169 10.2481 6.64464 10.4498 6.26209 10.5255L6.10907 10.5507C5.95605 10.6011 5.80303 10.6263 5.62451 10.6263C5.599 10.6263 5.548 10.6263 5.52249 10.6263C5.44598 10.6011 5.34397 10.5759 5.26746 10.5507C4.98692 10.4246 4.73189 10.2734 4.50236 10.0717C4.0433 9.69352 3.60974 9.26495 3.2782 8.76075C1.87552 6.74394 2.30907 4.02125 4.24733 2.50865C4.37484 2.43302 4.52786 2.43302 4.62988 2.55907C4.68088 2.6347 4.70639 2.71033 4.68088 2.78596C4.50236 3.59268 4.34934 4.85318 5.11444 5.93722C5.77753 6.84478 7.15471 7.72713 7.99632 7.72713C8.17484 8.73554 7.89431 9.41621 7.28223 9.97083Z" stroke="#221F1F" stroke-linejoin="round"/>
<path d="M10.0612 13.6023C10.0612 14.157 9.72968 14.5855 9.32163 14.5855C8.91357 14.5855 8.58203 14.1317 8.58203 13.6023C8.58203 13.1233 8.83706 12.72 9.16861 12.6191L9.98472 13.2242C10.0357 13.3502 10.0612 13.4763 10.0612 13.6023Z" fill="#221F1F"/>
<path d="M9.78155 13.476C9.78155 13.6777 9.65403 13.8289 9.52652 13.8289C9.399 13.8289 9.27148 13.6777 9.27148 13.476C9.27148 13.2743 9.399 13.123 9.52652 13.123C9.65403 13.123 9.78155 13.2743 9.78155 13.476Z" fill="white"/>
<path d="M9.16853 14.3592C8.888 14.5861 8.63296 14.8382 8.40343 15.1155C8.30142 15.2416 8.19941 15.3929 8.1229 15.5693C8.04639 15.7206 7.99538 15.8971 7.96988 16.0735C7.94437 16.1492 7.94437 16.25 7.94437 16.3256V16.4517V16.5777C7.94437 16.7542 7.94437 16.9307 7.94437 17.1324C7.96988 17.3088 7.99538 17.5105 8.02088 17.687C8.04639 17.7878 8.04639 17.8634 8.07189 17.9643C8.09739 18.0399 8.1229 18.1408 8.1739 18.2164C8.1229 18.1408 8.09739 18.0399 8.04639 17.9643C8.02088 17.8887 7.96988 17.7878 7.94437 17.7122C7.89337 17.5357 7.84236 17.3592 7.79135 17.1576C7.76585 16.9811 7.74035 16.7794 7.71484 16.6029V16.4769V16.3256C7.71484 16.2248 7.71484 16.124 7.71484 16.0483C7.74035 15.8466 7.76585 15.645 7.84236 15.4685C7.91887 15.292 7.99538 15.1155 8.09739 14.9391C8.32692 14.6113 8.55645 14.3088 8.83699 14.0567C8.939 13.9811 9.06652 13.9811 9.16853 14.0567C9.24504 14.1071 9.27055 14.2584 9.16853 14.3592Z" fill="#221F1F"/>
<path d="M8.9902 14.2819C8.9647 14.2819 8.9647 14.2819 8.93919 14.2819H8.91369H8.86268L8.73517 14.2567C8.65866 14.2315 8.58215 14.2315 8.50564 14.2315C8.35262 14.2315 8.17409 14.2315 8.02107 14.2819C7.94456 14.3071 7.86805 14.3323 7.79154 14.3575C7.56201 14.4584 7.35799 14.6348 7.23047 14.8365C7.30698 14.6601 7.38349 14.5088 7.51101 14.3827C7.56201 14.3071 7.63852 14.2567 7.71503 14.2063C7.79154 14.1559 7.86805 14.1054 7.94456 14.055C8.09758 13.9542 8.27611 13.9038 8.48013 13.8533C8.58215 13.8281 8.65866 13.8281 8.76067 13.8281C8.81168 13.8281 8.86268 13.8281 8.91369 13.8281H9.0157C9.14322 13.8281 9.24523 13.929 9.27074 14.055C9.29624 14.1811 9.14322 14.2819 8.9902 14.2819Z" fill="#221F1F"/>
<path d="M15.2896 13.6023C15.2896 14.157 14.9581 14.5855 14.5755 14.5855C14.193 14.5855 13.8359 14.1317 13.8359 13.6023C13.8359 13.4763 13.8614 13.3502 13.8869 13.2242L14.7031 12.6191C15.0346 12.72 15.2896 13.1233 15.2896 13.6023Z" fill="#221F1F"/>
<path d="M14.0918 13.476C14.0918 13.6777 14.2193 13.8289 14.3468 13.8289C14.4743 13.8289 14.6019 13.6777 14.6019 13.476C14.6019 13.2743 14.4743 13.123 14.3468 13.123C14.2193 13.123 14.0918 13.2743 14.0918 13.476Z" fill="white"/>
<path d="M15.0349 14.0045C15.3154 14.2818 15.545 14.5591 15.749 14.8868C15.851 15.0381 15.953 15.2146 16.0295 15.391C16.106 15.5675 16.157 15.7692 16.1825 15.9456C16.208 16.1473 16.208 16.3238 16.1825 16.5255C16.157 16.7019 16.1315 16.9036 16.106 17.0801C16.0805 17.2566 16.0295 17.433 15.9785 17.6095C15.953 17.6851 15.9275 17.786 15.8765 17.8616C15.851 17.9372 15.8 18.0381 15.749 18.1137C15.7745 18.0381 15.8255 17.9372 15.851 17.8616C15.8765 17.786 15.902 17.6851 15.9275 17.6095C15.953 17.433 16.004 17.2566 16.004 17.0801C16.0295 16.9036 16.0295 16.7272 16.0295 16.5255C16.0295 16.349 16.004 16.1725 15.9785 15.9961C15.9275 15.8196 15.8765 15.6683 15.8 15.5171C15.7235 15.3658 15.6215 15.2146 15.494 15.0885C15.2644 14.8112 15.0094 14.5591 14.7289 14.3322C14.6268 14.2314 14.6268 14.1053 14.7289 14.0045C14.8054 13.9288 14.9329 13.9036 15.0349 13.9793V14.0045Z" fill="#221F1F"/>
<path d="M14.8819 13.8297H15.0094C15.0604 13.8297 15.1114 13.8297 15.1624 13.8297C15.2645 13.8297 15.3665 13.8297 15.4685 13.8549C15.6725 13.8801 15.851 13.9306 16.0296 14.0062C16.2081 14.0818 16.3611 14.2079 16.5141 14.3339C16.6416 14.46 16.7436 14.6364 16.8202 14.7877C16.7181 14.6364 16.5906 14.5104 16.4376 14.4095C16.2846 14.3087 16.1316 14.2331 15.953 14.2079C15.7745 14.1827 15.596 14.1827 15.4175 14.1827C15.341 14.1827 15.2389 14.2079 15.1624 14.2079L15.0349 14.2331H14.9839H14.9584H14.9329H14.9074C14.7799 14.2583 14.6524 14.1574 14.6524 14.0314C14.6269 13.9053 14.7289 13.7793 14.8564 13.7793C14.8819 13.7793 14.8819 13.7793 14.9074 13.7793" fill="#221F1F"/>
</g>
<defs>
<clipPath id="clip0_1439_2688">
<rect width="19" height="18" fill="white" transform="translate(2.33398 2.33398)"/>
</clipPath>
</defs>
</svg>
