<svg width="24" height="24" viewBox="0 0 24 24" fill="none" xmlns="http://www.w3.org/2000/svg">
<path d="M0 4.66857C0 2.09019 2.09019 0 4.66856 0H18.6743C21.2526 0 23.3428 2.09019 23.3428 4.66856V18.6742C23.3428 21.2526 21.2526 23.3428 18.6742 23.3428H4.66855C2.09018 23.3428 0 21.2526 0 18.6742V4.66857Z" fill="#E5E5E5"/>
<path d="M16.8147 6.42678C15.9342 4.91752 14.7291 4.08594 13.4219 4.08594H9.92051C8.61332 4.08594 7.40824 4.91752 6.52778 6.42678C5.70495 7.83683 5.25195 9.7028 5.25195 11.6723C5.25195 13.6419 5.70495 15.5079 6.52778 16.9179C7.40824 18.4272 8.61332 19.2588 9.92051 19.2588H13.4219C14.7291 19.2588 15.9342 18.4272 16.8147 16.9179C17.6375 15.5079 18.0905 13.6419 18.0905 11.6723C18.0905 9.7028 17.6375 7.83683 16.8147 6.42678ZM16.908 11.0888H14.5738C14.5282 9.89126 14.2897 8.70894 13.8676 7.58736H16.0991C16.5455 8.56338 16.8402 9.77575 16.908 11.0888ZM15.4053 6.42022H13.3096C13.0658 5.99736 12.7719 5.60548 12.4342 5.25308H13.4219C14.1514 5.25308 14.8371 5.69076 15.4053 6.42022ZM13.4219 18.0916H12.4364C12.7741 17.7392 13.068 17.3473 13.3118 16.9245H15.4075C14.8371 17.6539 14.1514 18.0916 13.4219 18.0916ZM16.0991 15.7573H13.8684C14.2905 14.6358 14.5289 13.4534 14.5745 12.2559H16.9088C16.8402 13.569 16.5455 14.7813 16.0991 15.7573Z" fill="#FF4F20"/>
</svg>
