<svg width="24" height="23" viewBox="0 0 24 23" fill="none" xmlns="http://www.w3.org/2000/svg">
<path d="M0 4.66856C0 2.09018 2.09019 0 4.66856 0H18.6743C21.2526 0 23.3428 2.09019 23.3428 4.66856V18C23.3428 20.5784 21.2526 22.6686 18.6742 22.6686H4.66855C2.09018 22.6686 0 20.5784 0 18V4.66856Z" fill="#E5E5E5"/>
<g clip-path="url(#clip0_1439_2692)">
<path d="M20.334 11.243C20.334 12.448 19.8371 13.613 19.4015 14.6623C18.9659 15.7117 18.2925 16.7493 17.4754 17.5676C16.6583 18.3858 15.6764 19.0909 14.5933 19.5413C13.5478 19.9752 12.3657 20.3337 11.1625 20.3337C9.95926 20.3337 8.75131 20.0365 7.70583 19.6026C6.62033 19.1522 5.8786 18.1736 5.06153 17.353C4.24445 16.5347 3.32848 15.766 2.87874 14.6788C2.42899 13.5917 2.356 12.448 2.356 11.243C2.356 10.038 2.21472 8.75992 2.64798 7.71054C3.09772 6.62344 4.04666 5.75565 4.86609 4.93737C5.68316 4.1191 6.58971 3.26309 7.67522 2.81269C8.7207 2.37879 9.95926 2.33398 11.1625 2.33398C12.3657 2.33398 13.5313 2.55329 14.5768 2.98719C15.6623 3.43759 16.7078 4.05071 17.5249 4.87134C18.3419 5.68962 19.0507 6.6989 19.5004 7.78365C19.9337 8.83066 20.334 10.038 20.334 11.243Z" fill="#6FC7BA"/>
<path d="M11.7746 16.0969L13.6819 16.3799L14.4401 11.2439L13.6819 6.10547L11.7746 6.38845L12.3185 10.0837L8.32733 7.00628L7.15234 8.54143L10.6538 11.2439L7.15234 13.9439L8.32733 15.4814L12.3185 12.4017L11.7746 16.0969Z" fill="#1A1A1A"/>
</g>
<defs>
<clipPath id="clip0_1439_2692">
<rect width="18" height="18" fill="white" transform="translate(2.33398 2.33398)"/>
</clipPath>
</defs>
</svg>
