<svg width="24" height="23" viewBox="0 0 24 23" fill="none" xmlns="http://www.w3.org/2000/svg">
<path d="M0 4.66856C0 2.09018 2.09019 0 4.66856 0H18.6743C21.2526 0 23.3428 2.09019 23.3428 4.66856V18C23.3428 20.5784 21.2526 22.6686 18.6742 22.6686H4.66855C2.09018 22.6686 0 20.5784 0 18V4.66856Z" fill="#E5E5E5"/>
<g clip-path="url(#clip0_1439_2705)">
<path d="M11.334 2.33398C16.3092 2.33398 20.334 6.36958 20.334 11.334C20.334 16.3092 16.2984 20.334 11.334 20.334C6.35878 20.334 2.33398 16.2984 2.33398 11.334C2.33398 6.36958 6.36958 2.33398 11.334 2.33398Z" fill="url(#paint0_linear_1439_2705)"/>
<path d="M12.573 9.25628L11.3418 8.02148L10.1142 9.24908L11.3418 10.4875L12.573 9.25628ZM15.8022 9.20588L12.447 12.4927C11.8386 13.0939 10.845 13.0939 10.2366 12.4927L6.88136 9.20588L5.69336 10.4263L9.04856 13.7131C9.68576 14.3323 10.5138 14.6455 11.3454 14.6455C12.177 14.6455 13.005 14.3323 13.6422 13.7131L16.9974 10.4263L15.8022 9.20588Z" fill="#373535"/>
</g>
<defs>
<linearGradient id="paint0_linear_1439_2705" x1="19.7893" y1="8.18039" x2="0.3663" y2="15.4257" gradientUnits="userSpaceOnUse">
<stop offset="0.3724" stop-color="#FF97D6"/>
<stop offset="0.8021" stop-color="#F8B994"/>
</linearGradient>
<clipPath id="clip0_1439_2705">
<rect width="18" height="18" fill="white" transform="translate(2.33398 2.33398)"/>
</clipPath>
</defs>
</svg>
