<svg width="24" height="23" viewBox="0 0 24 23" fill="none" xmlns="http://www.w3.org/2000/svg">
<path d="M0 4.66856C0 2.09018 2.09019 0 4.66856 0H18.6743C21.2526 0 23.3428 2.09019 23.3428 4.66856V18C23.3428 20.5784 21.2526 22.6686 18.6742 22.6686H4.66855C2.09018 22.6686 0 20.5784 0 18V4.66856Z" fill="#E5E5E5"/>
<g clip-path="url(#clip0_1439_2707)">
<path d="M11.334 20.334C16.3045 20.334 20.334 16.3045 20.334 11.334C20.334 6.36342 16.3045 2.33398 11.334 2.33398C6.36342 2.33398 2.33398 6.36342 2.33398 11.334C2.33398 16.3045 6.36342 20.334 11.334 20.334Z" fill="#3D8130"/>
<path d="M14.7613 14.2652L14.7578 14.2617L14.7613 14.2652Z" fill="#3D8130"/>
<path d="M7.68203 9.46992L7.27773 10.2574L6.85938 11.0836L6.56406 11.857L6.36719 12.6797L6.24414 13.5797L6.17031 14.3566L6.08594 14.8664L6.17031 15.2637L6.31445 15.6047L6.58164 16.0758L7.20039 16.4625L7.65742 16.6418C7.76992 16.677 7.88945 16.7121 7.99141 16.7437L8.53281 16.8422L9.30625 16.8773H9.94609C10.0199 16.8773 10.6668 16.8422 10.6703 16.8387L11.493 16.8527L12.2875 16.7543L12.632 16.6102L12.8676 16.3289L12.8781 15.9562C12.8641 15.9246 12.8184 15.8051 12.8043 15.7594C12.7937 15.7277 12.6355 15.5414 12.4914 15.3797L12.4879 15.3762C12.4246 15.2848 12.3227 15.1266 12.3227 15.0738C12.3227 15.0211 12.3859 14.8664 12.4 14.8383L12.407 14.8242L12.7375 14.7293L12.9555 14.8875L13.1523 14.7785L13.3738 14.557L13.7605 14.2723L14.1121 14.0719L14.3898 14.0191L14.7555 14.2687L14.7309 14.2406L14.882 14.107L15.0227 13.875V13.6324L14.9945 13.5621L14.8152 13.7062L14.4953 13.7977H14.4883L13.9961 13.7871L13.2824 13.8609L13.0574 13.8855L12.8852 13.8609L12.4246 13.7977L11.9043 13.6992L11.0641 13.5621H11.0605L10.2555 13.2281L9.54883 12.8203L9.11641 12.5285L9.07422 12.3211L9.13047 12.1277L9.30273 12.0012L9.70352 12.0926L10.5789 12.3633C11.0078 12.4512 11.6617 12.5813 11.7039 12.5848C11.725 12.5848 11.8094 12.5988 12.0203 12.634C12.2453 12.6691 12.5547 12.7219 12.618 12.7219C12.727 12.7219 13.5672 12.7676 13.6164 12.7711C13.6621 12.7711 14.3441 12.757 14.418 12.757C14.4672 12.757 14.7309 12.6691 14.8891 12.6129L15.1281 12.3281L15.3566 11.9309C15.3707 11.8148 15.3566 11.6988 15.3145 11.5898C15.2582 11.4422 15.1527 11.3156 15.0191 11.2313C14.9488 11.3648 14.8574 11.4492 14.752 11.4879C14.7133 11.502 14.6676 11.509 14.6254 11.509C14.5621 11.509 14.4988 11.4949 14.4461 11.4668L14.4813 11.4035C14.5586 11.4422 14.6465 11.4492 14.7309 11.4211C14.8258 11.3859 14.9066 11.3016 14.9699 11.1715C14.8926 11.1996 14.8082 11.2172 14.7238 11.2172C14.6711 11.2172 14.6184 11.2137 14.5656 11.1996L14.5727 11.1645L14.5797 11.1293C14.5832 11.1293 14.8539 11.1961 15.0578 11.0379C15.202 10.9289 15.2828 10.732 15.2969 10.4613L15.0613 10.7391L14.7766 10.8691C14.65 10.9008 14.2281 11.0062 14.1895 11.0062C14.1754 11.0062 14.1191 10.9992 13.982 10.9746C13.8098 10.9465 13.5531 10.9078 13.4863 10.9078C13.3668 10.9078 13.198 10.7777 13.1805 10.7637L13.1594 10.7496L13.293 10.3594L13.6621 9.94102L14.0523 9.66328H14.5375L14.9945 9.7125L15.1914 9.9375L15.2863 10.0781V9.69844L14.9066 9.56133C14.8645 9.5543 14.4883 9.50156 14.3969 9.50156C14.309 9.50156 13.9715 9.5543 13.9152 9.56133L13.4266 9.87773L13.3879 9.81797L13.8871 9.49453H13.8941C13.9117 9.49102 14.2914 9.43125 14.3934 9.43125C14.4918 9.43125 14.8996 9.49102 14.9172 9.49453L14.9242 9.49805L15.3355 9.64922L15.3742 9.67031L15.3777 9.64219L15.1844 9.47344L14.8363 9.30469L14.4145 9.26953L13.9293 9.35391L13.7359 9.43828L13.7078 9.37148L13.9117 9.28359L14.4109 9.1957L14.8539 9.23438L14.8715 9.24492L14.7379 9.0375L14.3617 8.70703L14.3652 8.70352L12.9027 8.7457C12.9027 8.7457 12.7129 8.77031 12.4949 8.79844L12.7023 9.09727L12.8078 9.28359L12.7551 9.46992L12.6848 9.44883L12.7305 9.29062L12.6391 9.13242L12.4176 8.8125L12.4316 8.80195C12.1574 8.83711 11.8656 8.87227 11.848 8.87227C11.8164 8.87227 10.6422 8.96016 10.593 8.96016C10.4945 8.95312 10.3961 8.94258 10.3012 8.92148C10.2836 8.91094 9.49961 8.62617 9.47148 8.60859C9.44336 8.59102 9.16914 8.32734 9.16914 8.32734L8.63477 8.16211L8.16719 8.73867L7.68203 9.46992ZM13.3879 11.0836C13.4582 11.1152 13.5215 11.1539 13.5883 11.1926L13.9891 11.2383L14.2176 11.1891L14.2316 11.2594L13.9926 11.3086L13.7148 11.277C13.8344 11.3648 13.9434 11.4633 14.0418 11.5758C14.1121 11.6566 14.1754 11.7445 14.2281 11.8359L14.1648 11.8711C14.1016 11.7656 14.0277 11.6637 13.9398 11.5758C13.8238 11.4562 13.6938 11.3473 13.5531 11.2594L13.3492 11.1434L13.3879 11.0836ZM9.36953 9.76875L9.68945 9.46289L9.96719 9.23438L10.3645 9.15703L10.7828 9.14297H11.2293L11.5984 9.15703L12.3473 9.17109L12.5828 9.31523L12.8711 9.57891L13.0363 9.78281L13.1137 10.1977L13.0434 10.2117L12.9695 9.81445L12.8184 9.62461L12.5406 9.37148L12.3297 9.24141L11.7426 9.23086L11.9992 9.37148C12.1363 9.4418 12.3719 9.56836 12.3965 9.62109C12.4141 9.64922 12.6004 9.83203 12.7727 9.99375L12.7762 9.99727L13.0398 10.3383L13.0785 10.6195L13.0082 10.6301L12.973 10.3699L12.7234 10.0465C12.6355 9.96562 12.3613 9.70547 12.3367 9.65625C12.3156 9.62812 12.1328 9.52266 11.9711 9.43828L11.5949 9.23086L11.2328 9.22031H10.7898L10.375 9.23086L10.0059 9.30117L9.74219 9.51562L9.44336 9.80391L9.41172 9.99375L9.475 10.05L9.6332 9.96563L9.89336 9.64219L10.3645 9.46289L10.9762 9.39961L11.493 9.44883L12.1645 9.79688L12.4422 9.96211L12.7094 10.3172L12.8324 10.7039L13.0117 10.8199V10.9781L12.8465 11.1293L12.5512 11.2523L12.4246 11.3578L12.291 11.5758L12.2242 11.6848L12.2172 11.6883C12.1293 11.734 11.9746 11.8148 11.9324 11.8148C11.9008 11.8219 11.7039 11.9098 11.5281 11.9977L11.5105 12.0012C11.4965 12.0047 11.1871 12.0996 11.1098 12.1137L11.0992 12.0434C11.166 12.0328 11.4578 11.9449 11.4859 11.9344C11.6617 11.85 11.8797 11.748 11.9184 11.748C12.0027 11.7164 12.0836 11.6777 12.1645 11.632L12.1961 11.5793L12.3578 11.3156L12.3965 11.284C12.284 11.2734 12.1363 11.2559 12.0977 11.2348C12.0801 11.2277 11.9746 11.2137 11.4227 11.2137C11.2855 11.2137 10.9621 11.1398 10.9164 11.1258C10.8813 11.1152 10.5508 11.0168 10.5473 11.0168L10.5402 11.0133L10.5332 11.0062C10.5297 11.0027 10.2238 10.7109 9.99883 10.5809L10.034 10.5176C10.252 10.6441 10.5297 10.9043 10.5789 10.95C10.6316 10.9641 10.9059 11.0484 10.941 11.059C10.9797 11.073 11.2961 11.1434 11.4227 11.1434C12.0871 11.1434 12.1152 11.1609 12.1328 11.175C12.1574 11.1891 12.3156 11.2066 12.4492 11.2172L12.4457 11.2418L12.4984 11.1961L12.7938 11.073L12.9238 10.9535V10.8656L12.8324 10.8059L12.8359 10.8164L12.5301 10.9289L12.1082 10.9781C12.0871 10.9781 11.9957 10.9816 11.8937 10.9816C11.7742 10.9816 11.6441 10.9781 11.6055 10.9641C11.5492 10.9465 11.1941 10.8691 11.0184 10.8305H11.0148L11.0113 10.827C10.7898 10.7074 10.5156 10.5563 10.4945 10.5176C10.477 10.4965 10.3398 10.4262 10.2238 10.3699H10.2203L9.83008 10.1414L9.77734 10.152L9.77031 10.1063L9.64727 10.0359L9.45742 10.1379L9.32383 10.0219L9.36953 9.76875ZM9.53125 11.4527L9.54883 11.523L9.30977 11.5793L9.19023 11.6074L9.1832 11.5793L9.17266 11.5371L9.53125 11.4527ZM9.68242 11.7867L9.66484 11.857C9.58398 11.8395 9.49961 11.843 9.41875 11.857C9.28516 11.8816 9.08828 11.959 8.89844 12.177L8.8457 12.1313C9.23594 11.6742 9.66484 11.7797 9.68242 11.7867Z" fill="#3D8130"/>
<path d="M10.1641 10.009C10.1852 10.0055 10.6844 9.9457 10.7477 9.9457C10.7723 9.9457 10.8426 9.95273 10.934 9.95977C11.057 9.97031 11.2645 9.98789 11.2961 9.98438C11.3453 9.97031 11.8375 9.92812 11.8937 9.92109L12.1855 9.9L12.1258 9.86484L11.4684 9.52383L10.9727 9.47461L10.375 9.53437L9.93203 9.70312L9.70703 9.98438L9.85117 10.0687L10.1641 10.009Z" fill="#3D8130"/>
<path d="M11.8961 9.99375C11.6781 10.0148 11.3441 10.0465 11.309 10.0535C11.2773 10.0605 11.1648 10.0535 10.9258 10.0324C10.8449 10.0254 10.7676 10.0184 10.7465 10.0184C10.6973 10.0184 10.3176 10.0641 10.1734 10.0781L9.94141 10.1203L10.2578 10.3066C10.3562 10.3523 10.525 10.4367 10.5531 10.4789C10.5813 10.507 10.8203 10.6441 11.0418 10.7637C11.098 10.7742 11.5621 10.8762 11.6324 10.9008C11.6816 10.9184 11.9523 10.9148 12.1105 10.9113L12.5254 10.8621L12.775 10.7672L12.7609 10.7602L12.6344 10.3594L12.3848 10.0254L12.2371 9.9375L12.2406 9.97266L11.8961 9.99375Z" fill="#3D8130"/>
<path d="M15.1449 9.9668L14.9691 9.76992L14.5402 9.7207H14.0832L13.7141 9.98438L13.3625 10.3816L13.25 10.7086C13.3063 10.7508 13.4187 10.8211 13.4926 10.8211C13.5664 10.8211 13.8055 10.8598 13.9988 10.8914C14.0902 10.9055 14.1816 10.9195 14.1957 10.9195C14.2273 10.916 14.5578 10.8352 14.7617 10.7859L15.0219 10.6664L15.2293 10.4273L15.2117 10.3148L14.5719 10.0547L13.7527 10.0301L13.7562 9.95977L14.5895 9.98438L15.2785 10.2656L15.3066 10.4449C15.3066 10.4344 15.3066 10.4238 15.3066 10.4133V10.2164L15.1449 9.9668Z" fill="#3D8130"/>
<path d="M14.3785 14.0898L14.1395 14.1355L13.802 14.3289L13.4223 14.6102L13.3168 14.7156L13.5559 14.8844L13.5734 15.018L13.4117 15.1797L13.3625 15.1305L13.4996 14.9934L13.4926 14.9266L13.2676 14.7684L13.2008 14.8352L13.0602 14.9125L13.0215 15.1023L13.2184 15.2746L13.5031 15.2641C13.5559 15.2254 13.6437 15.1691 13.6859 15.1656C13.7281 15.141 13.7703 15.1129 13.809 15.0813C13.9039 15.0074 13.9426 14.9828 13.9707 14.9828C14.0551 14.9406 14.1359 14.8949 14.2133 14.8422L14.2238 14.8352L14.5684 14.8738L14.6879 14.9934L14.6633 15.018C14.5895 15.0988 14.5051 15.2043 14.5016 15.2289C14.5016 15.2465 14.498 15.2641 14.491 15.2781L14.5719 15.2324L14.9516 14.9617L14.9938 15.0215L14.607 15.2957L14.4277 15.3941C14.4207 15.4047 14.4137 15.4152 14.4102 15.4188L14.3961 15.4082L14.1219 15.5594L13.932 15.8336L13.8652 15.9953L14.0023 16.1887L14.1535 16.3609L14.3328 16.382L14.498 16.3469L14.4945 16.3117L14.6773 16.0234L15.0219 15.6895L15.0711 15.7422L14.7301 16.0727L14.5648 16.3293L14.5754 16.5227L14.7512 16.6422L14.9832 16.6668L15.1133 16.6281L15.0887 16.5895L15.1062 16.5684C15.1133 16.5578 15.3031 16.3434 15.3418 16.3082C15.3699 16.2801 15.5316 16.0937 15.6125 16.0023L15.6652 16.048C15.6547 16.0586 15.4297 16.3223 15.391 16.3574C15.3629 16.3855 15.2258 16.5367 15.1766 16.593L15.2996 16.7758H15.507L15.6863 16.6949L15.834 16.477L16.0309 16.266L16.0836 16.3152L15.8867 16.5227L15.7355 16.7512L15.5211 16.8461H15.2609L15.152 16.6844L14.9867 16.7336L14.723 16.709L14.5051 16.5578L14.498 16.4172L14.3328 16.4523L14.1148 16.4242L13.9496 16.2344L13.7035 16.0867L13.4469 15.802L13.3836 15.359L13.4539 15.3484L13.5066 15.7281L13.8125 15.4855L14.143 15.1691L14.3328 14.909L14.2414 14.8984C14.1395 14.9652 14.0199 15.0391 13.9777 15.0461C13.9355 15.0707 13.8934 15.0988 13.8547 15.1305C13.7563 15.2043 13.7176 15.2289 13.693 15.2289C13.6402 15.2535 13.5875 15.2852 13.5418 15.3203L13.5312 15.3273L13.1973 15.3414L12.9477 15.1199L12.9828 14.9512L12.9582 14.9652L12.7332 14.8035L12.4695 14.8809C12.4414 14.9441 12.4203 15.0074 12.4062 15.0742C12.4098 15.1023 12.4871 15.2324 12.5574 15.3344C12.6523 15.4398 12.8703 15.6895 12.8844 15.7422C12.8949 15.7809 12.9406 15.8934 12.9582 15.9355L12.9617 15.9426L12.9512 16.4207L13.0883 16.6246C13.1586 16.6668 13.6754 16.9691 13.7352 17.0043C13.7773 17.0289 14.15 17.1344 14.3785 17.1977L15.1484 17.2715L15.7672 17.1871L16.298 16.9445L16.5863 16.6668L16.5195 16.4207L16.1645 15.7598L15.9078 15.3695L15.4613 14.8844L14.8039 14.5223L14.7055 14.3113L14.3785 14.0898Z" fill="#3D8130"/>
<path d="M14.9371 12.6664L14.9266 12.6699C14.8563 12.6945 14.4977 12.8211 14.4203 12.8211C14.3465 12.8211 13.6258 12.8316 13.6188 12.8352C13.6082 12.8352 12.7293 12.7859 12.6203 12.7859C12.55 12.7859 12.2652 12.7402 12.0121 12.698C11.8715 12.6734 11.7273 12.6523 11.7063 12.6523C11.657 12.6523 10.7465 12.466 10.5637 12.4309H10.5602L9.68477 12.1602L9.31914 12.0793L9.19258 12.1742L9.15039 12.3254L9.18203 12.4871L9.58984 12.7613L10.2895 13.1656L11.084 13.4961L11.9172 13.6297L12.4375 13.7281L13.0598 13.8125L13.9949 13.7141H13.9984L14.4871 13.7246L14.7824 13.6402L15.032 13.4398L15.2359 13.127L15.2816 12.9828L15.2148 12.8211C14.9195 13.0883 14.8879 13.0988 14.8703 13.1023L14.568 13.1762L13.7277 13.2148H13.7242L12.8453 13.1656L11.9734 13.0074L11.2703 13.0215H11.2668L10.5355 12.8352L9.88867 12.6102L9.54414 12.3992L9.58281 12.3395L9.92383 12.5469L10.5602 12.7684L11.2809 12.9512L11.984 12.9371H11.9875L12.8594 13.0953L13.7313 13.1445L14.5645 13.1094L14.8563 13.0355C14.8738 13.0285 14.9723 12.9512 15.1797 12.7613C15.2078 12.7367 15.2254 12.7191 15.2324 12.7121L15.4996 12.3465L15.591 12.1742C15.577 12.1145 15.5629 12.0582 15.5559 11.9984C15.5207 11.9422 15.482 11.893 15.4363 11.8438C15.4363 11.8754 15.4363 11.907 15.4293 11.9387V11.9457L15.1867 12.3641L14.9371 12.6664Z" fill="#983B1F"/>
<path d="M16.5758 16.3965L16.2172 15.7285L15.957 15.3313L15.507 14.8285L14.8566 14.4734L14.7617 14.2695L14.7441 14.2801C14.7441 14.2801 14.8039 14.498 14.8461 14.5191C14.8883 14.5402 15.4508 14.8285 15.4789 14.8426C15.507 14.8566 15.9957 15.4402 15.9957 15.4402L16.3895 16.1258L16.625 16.6531C16.625 16.6531 16.3227 16.9625 16.3051 16.966C16.2875 16.9695 15.7039 17.2543 15.6863 17.2543C15.6687 17.2543 15.1027 17.3176 15.0711 17.3105C15.0395 17.3 14.3434 17.2402 14.2906 17.2367C14.2344 17.2332 13.591 16.9766 13.591 16.9766L13.0355 16.6426L12.8773 16.3965L12.6559 16.6461C12.6559 16.6461 12.343 16.8043 12.3008 16.8043C12.2586 16.8043 11.4922 16.9062 11.4324 16.9062H9.88906C9.88906 16.9062 8.36328 16.8781 8.29648 16.8465C8.27539 16.8359 8.15234 16.7973 7.99062 16.7445L7.86055 16.7199L7.65664 16.6426C7.40703 16.5652 7.18203 16.4984 7.18203 16.4984L6.55273 16.0906C6.55273 16.0906 6.28906 15.6336 6.27852 15.609C6.26797 15.5844 6.10625 15.2012 6.10625 15.1836C6.10625 15.166 6.05 14.8602 6.05 14.8602L6.1625 14.1605L6.21172 13.4258L6.33125 12.6242C6.33125 12.6242 6.53164 11.8191 6.53516 11.784C6.53867 11.7453 6.86211 10.9508 6.86211 10.9508L7.20312 10.3355L7.65313 9.40742L8.14883 8.70781L8.63047 8.13477L8.66211 8.14531L8.60586 8.09961L8.13828 8.67969L7.61797 9.43555L7.21016 10.2301L6.7918 11.0527L6.49297 11.8332L6.29258 12.6629L6.16953 13.5699L6.0957 14.3469L6.00781 14.8707L6.0957 15.2855L6.24688 15.6371L6.52461 16.1293L7.16094 16.5301L7.83242 16.7937L8.51797 16.9203L9.30195 16.959H9.9418C10.0156 16.959 10.6309 16.9238 10.6695 16.9203L11.4957 16.9344H11.4992L12.3043 16.8359H12.3078L12.677 16.6813L12.8668 16.4527L13.025 16.6883L13.032 16.6918C13.0391 16.6953 13.6262 17.0363 13.6859 17.075C13.7492 17.1137 14.2871 17.2613 14.3504 17.2754L15.1379 17.3492L15.7707 17.2613H15.7742L16.3227 17.0117L16.3297 17.0082L16.6566 16.6918L16.5758 16.3965Z" fill="black"/>
<path d="M8.14961 8.70781L7.65391 9.40742L7.20391 10.3355L6.86289 10.9508C6.86289 10.9508 6.53945 11.7453 6.53594 11.784C6.53242 11.8227 6.33203 12.6242 6.33203 12.6242L6.2125 13.4258L6.16328 14.1605L6.05078 14.8602C6.05078 14.8602 6.10703 15.166 6.10703 15.1836C6.10703 15.2012 6.26875 15.5844 6.2793 15.609C6.28984 15.6336 6.55352 16.0906 6.55352 16.0906L7.18281 16.4984C7.18281 16.4984 7.40781 16.5652 7.65742 16.6426L7.20039 16.4633L6.58164 16.0766L6.31445 15.6055L6.17031 15.2645L6.08594 14.8672L6.17031 14.3574L6.24414 13.5805L6.36719 12.6805L6.56406 11.8578L6.85938 11.0844L7.27773 10.2582L7.68203 9.4707L8.19883 8.72187L8.66641 8.14531L8.63477 8.13477L8.14961 8.70781Z" fill="black"/>
<path d="M14.3926 14.0156L14.1148 14.0684L13.7633 14.2688L13.3766 14.5535L13.1551 14.775L12.9582 14.884L12.7402 14.7258L12.4098 14.8207L12.4027 14.8348C12.3887 14.8664 12.3254 15.0176 12.3254 15.0703C12.3254 15.123 12.4309 15.2848 12.4906 15.3727L12.4941 15.3762C12.6383 15.5379 12.7965 15.7242 12.807 15.7559C12.8176 15.8016 12.8668 15.9211 12.8809 15.9527L12.8703 16.3254L12.6348 16.6066L12.2902 16.7508L11.4957 16.8492L10.673 16.8352C10.666 16.8352 10.0191 16.8738 9.94883 16.8738H9.30898L8.53555 16.8387L7.99414 16.7402C8.15234 16.7895 8.27891 16.8316 8.3 16.8422C8.36328 16.8738 9.89258 16.902 9.89258 16.902H11.4359C11.4957 16.902 12.2656 16.8 12.3043 16.8C12.3465 16.8 12.6594 16.6418 12.6594 16.6418L12.8809 16.3922L13.0391 16.6383L13.5945 16.9723C13.5945 16.9723 14.2379 17.2254 14.2941 17.2324C14.3504 17.2359 15.043 17.2957 15.0746 17.3063C15.1062 17.3168 15.6723 17.25 15.6898 17.25C15.7074 17.25 16.291 16.9688 16.3086 16.9617C16.3262 16.9582 16.6285 16.6488 16.6285 16.6488L16.393 16.1215L15.9992 15.4359C15.9992 15.4359 15.5105 14.8523 15.4824 14.8383C15.4543 14.8242 14.8918 14.5359 14.8496 14.5148C14.8074 14.4938 14.7477 14.2758 14.7477 14.2758L14.7652 14.2652V14.2617L14.3926 14.0156ZM14.8004 14.5219L15.4578 14.884L15.8973 15.3691L16.1539 15.7594L16.509 16.4203L16.5758 16.6664L16.2875 16.9441L15.7566 17.1867L15.1379 17.2711L14.368 17.1973C14.1395 17.134 13.7668 17.0285 13.7246 17.0039C13.6648 16.9688 13.148 16.6664 13.0777 16.6242L12.9406 16.4203L12.9512 15.9422V15.9387C12.9336 15.8965 12.8879 15.784 12.8773 15.7453C12.8633 15.6926 12.6453 15.443 12.5504 15.3375C12.4801 15.232 12.3992 15.102 12.3992 15.0773C12.4133 15.0105 12.4344 14.9473 12.4625 14.884L12.7262 14.8066L12.9512 14.9684L12.9758 14.9543L12.9406 15.123L13.1902 15.3445L13.5242 15.3305L13.5348 15.3234C13.5805 15.2883 13.6332 15.2566 13.6859 15.232C13.7141 15.232 13.7492 15.2074 13.8477 15.1336C13.8863 15.102 13.9285 15.0738 13.9707 15.0492C14.0129 15.0457 14.1359 14.9684 14.2344 14.9016L14.3258 14.9121L14.1359 15.1723L13.8055 15.4887L13.4996 15.7313L13.4469 15.3516L13.3766 15.3621L13.4398 15.8051L13.6965 16.0898L13.9426 16.2375L14.1078 16.4273L14.3258 16.4555L14.491 16.4203L14.498 16.5609L14.716 16.7121L14.9797 16.7367L15.1449 16.6875L15.2539 16.8492H15.5141L15.7285 16.7543L15.8797 16.5258L16.0766 16.3184L16.0238 16.2691L15.827 16.4801L15.6793 16.698L15.5 16.7789H15.2926L15.1695 16.5961C15.2188 16.5398 15.3559 16.3887 15.384 16.3605C15.4227 16.3219 15.6477 16.0617 15.6582 16.0512L15.6055 16.0055C15.5246 16.1004 15.3629 16.2832 15.3348 16.3113C15.2961 16.35 15.1063 16.5645 15.0992 16.5715L15.0816 16.5926L15.1062 16.6313L14.9762 16.6699L14.7441 16.6453L14.5684 16.5258L14.5578 16.3324L14.723 16.0758L15.0641 15.7453L15.0148 15.6926L14.6703 16.0266L14.4875 16.3148L14.491 16.35L14.3258 16.3852L14.1465 16.3641L13.9953 16.1918L13.8582 15.9984L13.925 15.8367L14.1148 15.5625L14.3891 15.4113L14.4031 15.4219C14.4066 15.4148 14.4137 15.4078 14.4207 15.3973L14.6 15.2988L14.9867 15.0246L14.9445 14.9648L14.5648 15.2355L14.484 15.2812C14.491 15.2672 14.4945 15.2496 14.4945 15.232C14.498 15.2039 14.5824 15.102 14.6562 15.0211L14.6809 14.9965L14.5613 14.877L14.2168 14.8383L14.2063 14.8453C14.1289 14.898 14.048 14.9473 13.9637 14.9859C13.9355 14.9859 13.8969 15.0141 13.802 15.0844C13.7633 15.116 13.7211 15.1441 13.6789 15.1688C13.6367 15.1723 13.5523 15.2285 13.4961 15.2672L13.2113 15.2777L13.0145 15.1055L13.0531 14.9156L13.1937 14.8383L13.2605 14.7715L13.4855 14.9297L13.4926 14.9965L13.3555 15.1336L13.4047 15.1828L13.5664 15.0211L13.5488 14.8875L13.3098 14.7188L13.4152 14.6133L13.7949 14.332L14.1324 14.1387L14.3715 14.093L14.6949 14.3145L14.8004 14.5219ZM13.8371 16.0934L13.7422 16.0371L13.5312 15.8051L13.8547 15.552L14.1887 15.2285L14.4066 14.9262L14.5297 14.9402L14.5824 14.993C14.5156 15.0668 14.4242 15.1758 14.4242 15.225C14.4137 15.2672 14.3926 15.3059 14.368 15.3375L14.0621 15.5063L13.8582 15.798L13.7738 16.009L13.8371 16.0934Z" fill="black"/>
<path d="M14.698 8.92969L14.8773 9.16523C14.8773 9.16523 14.9652 9.30234 14.9969 9.31289C15.0285 9.32344 15.3203 9.49219 15.3203 9.49219L15.4398 9.62578L15.4152 9.70312L15.3238 9.675L15.3379 10.1285H15.366V9.7207L15.4469 9.76641L15.468 9.59414L15.2395 9.39375L14.9934 9.27422L15.0039 9.26719L14.8141 8.96836L14.4309 8.63086L14.3887 8.68008H14.4273L14.698 8.92969Z" fill="black"/>
<path d="M15.2957 10.7812C15.2957 10.7812 15.1656 11.0414 15.1516 11.0484C15.1375 11.059 15.0215 11.1082 15.0215 11.1082L15.032 11.1715C15.0848 11.2102 15.1375 11.2523 15.1832 11.298C15.1902 11.3086 15.2676 11.4633 15.3309 11.5793H15.3941C15.3344 11.4035 15.2148 11.2523 15.0566 11.1574C15.0637 11.1434 15.0707 11.1258 15.0777 11.1117C15.0883 11.1047 15.1023 11.0977 15.1129 11.0871C15.2852 10.957 15.373 10.732 15.3836 10.4156V10.1941L15.3414 10.1309L15.352 10.4719L15.2957 10.7812Z" fill="black"/>
<path d="M14.7621 9.01992L14.8957 9.22734L14.8781 9.2168L14.4352 9.17812L13.9359 9.26602L13.732 9.35391L13.7602 9.4207L13.9535 9.33633L14.4387 9.25195L14.8605 9.28711L15.2086 9.45586L15.402 9.62461L15.3984 9.65273L15.3598 9.63164L14.9484 9.48047L14.9414 9.47695C14.9238 9.47344 14.5195 9.41367 14.4176 9.41367C14.3156 9.41367 13.9359 9.47344 13.9184 9.47695H13.9113L13.4121 9.80039L13.4508 9.86016L13.9395 9.54375C13.9957 9.53672 14.3332 9.48398 14.4211 9.48398C14.5125 9.48398 14.8887 9.54023 14.9309 9.54375L15.3105 9.68086V10.0676L15.2156 9.92695L15.0187 9.70195L14.5617 9.65273H14.0766L13.6863 9.93047L13.3172 10.3488L13.1836 10.7391L13.2047 10.7531C13.2223 10.7672 13.391 10.8973 13.5105 10.8973C13.5773 10.8973 13.8375 10.9395 14.0062 10.9641C14.1434 10.9852 14.1996 10.9957 14.2137 10.9957C14.2523 10.9957 14.6742 10.8902 14.8008 10.8586L15.0855 10.7285L15.3211 10.4508C15.307 10.7215 15.2262 10.9184 15.082 11.0273C14.8746 11.1855 14.6039 11.1187 14.6039 11.1187L14.5969 11.1539L14.5898 11.1891C14.6426 11.1996 14.6953 11.2066 14.748 11.2066C14.8324 11.2066 14.9168 11.1926 14.9941 11.1609C14.9309 11.291 14.85 11.3754 14.7551 11.4105C14.6742 11.4387 14.5828 11.4316 14.5055 11.393L14.4703 11.4562C14.5266 11.4844 14.5898 11.4984 14.6496 11.4984C14.6918 11.4984 14.734 11.4914 14.7762 11.4773C14.8816 11.4387 14.9695 11.3543 15.0434 11.2207C15.177 11.3051 15.2824 11.4316 15.3387 11.5793H15.3492C15.2895 11.4633 15.2086 11.3086 15.2016 11.298C15.1523 11.2523 15.1031 11.2102 15.0504 11.1715L15.0398 11.1082C15.0398 11.1082 15.1559 11.059 15.1699 11.0484C15.184 11.0379 15.3141 10.7812 15.3141 10.7812L15.3703 10.4754L15.3598 10.1344L15.3457 9.68086L15.4371 9.70898L15.4617 9.63164L15.3422 9.49805C15.3422 9.49805 15.0504 9.32578 15.0187 9.31875C14.9871 9.3082 14.8992 9.17109 14.8992 9.17109L14.7199 8.93555L14.4457 8.68945H14.407L14.4035 8.69297L14.7621 9.01992ZM15.3105 10.4437L15.2824 10.2645L14.5934 9.9832L13.7602 9.95859L13.7566 10.0289L14.5758 10.0535L15.2156 10.3137L15.2332 10.4262L15.0258 10.6652L14.7656 10.7848C14.5617 10.834 14.2312 10.9148 14.1996 10.9184C14.1855 10.9184 14.0941 10.9043 14.0027 10.8902C13.8094 10.8586 13.5703 10.8199 13.4965 10.8199C13.4262 10.8199 13.3137 10.7496 13.2539 10.7074L13.3664 10.3805L13.718 9.9832L14.0871 9.71953H14.5441L14.973 9.76875L15.1488 9.96563L15.3141 10.2152V10.4121C15.3105 10.4227 15.3105 10.4332 15.3105 10.4437Z" fill="black"/>
<path d="M13.0629 13.8801L13.2879 13.8555H12.8906L13.0629 13.8801Z" fill="black"/>
<path d="M15.0637 13.8695C15.0531 13.8871 14.8492 14.2176 14.8492 14.2176L14.7578 14.2668L14.7789 14.2914L14.9406 14.1508L15.0953 13.8906V13.8555H15.0637C15.0672 13.8625 15.0672 13.866 15.0637 13.8695Z" fill="black"/>
<path d="M15.0633 13.8695C15.0633 13.866 15.0668 13.859 15.0668 13.8555H15.0281V13.8695L14.8875 14.1016L14.7363 14.2352L14.7609 14.2633L14.7645 14.2668L14.8559 14.2176C14.8523 14.2176 15.0563 13.8906 15.0633 13.8695Z" fill="black"/>
<path d="M15.4023 11.7137L15.434 11.7594C15.427 11.6996 15.4164 11.6398 15.3953 11.5801H15.332C15.3707 11.6539 15.4023 11.7137 15.4023 11.7137Z" fill="black"/>
<path d="M15.6305 12.1082C15.627 12.1258 15.5848 12.2664 15.5742 12.2875C15.5637 12.3121 15.2332 12.7656 15.2332 12.7656L15.3105 12.9238C15.3105 12.9238 15.3246 13.0363 15.3141 13.0539C15.3035 13.0715 15.0117 13.525 15.0117 13.525L15.0574 13.6516C15.0574 13.6516 15.068 13.8098 15.0645 13.859H15.0961V13.6164L15.0574 13.5109L15.0891 13.4863L15.3035 13.1559L15.3598 12.9766L15.2754 12.7691C15.2824 12.7621 15.2859 12.7586 15.2859 12.7586L15.5602 12.3824L15.6691 12.182L15.6656 12.168C15.6516 12.1117 15.6375 12.052 15.6305 11.9922C15.6305 11.9781 15.6305 11.9395 15.4477 11.7461L15.4336 11.7602L15.5426 11.9148C15.5426 11.9148 15.634 12.0906 15.6305 12.1082Z" fill="black"/>
<path d="M15.3305 11.5801H15.3199C15.3621 11.6891 15.3762 11.8051 15.3621 11.9211L15.1301 12.3184L14.891 12.6031C14.7293 12.6594 14.4656 12.7473 14.4199 12.7473C14.3461 12.7473 13.6641 12.7578 13.6184 12.7613C13.5656 12.7578 12.7289 12.7121 12.6199 12.7121C12.5566 12.7121 12.2473 12.6629 12.0223 12.6242C11.8148 12.5891 11.727 12.575 11.7059 12.575C11.6602 12.5715 11.0098 12.4414 10.5809 12.3535L9.70547 12.0828L9.30469 11.9914L9.13242 12.118L9.07617 12.3113L9.11836 12.5188L9.55078 12.8105L10.2574 13.2184L11.0625 13.5523H11.066L11.9062 13.6895L12.4266 13.7879L12.8871 13.8512H13.2879L14.0016 13.7773L14.4937 13.7879H14.5008L14.8207 13.6965L15 13.5523L15.0281 13.6227V13.8512H15.0668C15.0703 13.802 15.0598 13.6438 15.0598 13.6438L15.0141 13.5172C15.0141 13.5172 15.3059 13.0637 15.3164 13.0461C15.327 13.0285 15.3129 12.916 15.3129 12.916L15.2355 12.7578C15.2355 12.7578 15.5695 12.3043 15.5766 12.2797C15.5871 12.2551 15.6258 12.118 15.6328 12.1004C15.6363 12.0828 15.5449 11.907 15.5449 11.907L15.4359 11.7523L15.4043 11.7066C15.4008 11.7137 15.3691 11.6539 15.3305 11.5801ZM15.4324 11.9387C15.4359 11.907 15.4395 11.8754 15.4395 11.8438C15.4852 11.8895 15.5238 11.9422 15.559 11.9984C15.566 12.0582 15.5766 12.118 15.5941 12.1742L15.5027 12.3465L15.2355 12.7121C15.2285 12.7191 15.2074 12.7367 15.1828 12.7613C14.9754 12.9512 14.8805 13.025 14.8594 13.0355L14.5676 13.1094L13.7344 13.1445L12.8625 13.0953L11.9906 12.9371H11.9871L11.284 12.9512L10.5633 12.7684L9.92695 12.5469L9.58594 12.3395L9.54727 12.3992L9.8918 12.6102L10.5387 12.8352L11.2699 13.0215H11.2734L11.9766 13.0074L12.8484 13.1656L13.7273 13.2148H13.7309L14.5711 13.1762L14.8734 13.1023C14.8875 13.0988 14.9227 13.0883 15.218 12.8211L15.2848 12.9828L15.2391 13.127L15.0352 13.4398L14.7855 13.6402L14.4902 13.7246L14.0016 13.7141H13.998L13.0629 13.8125L12.4406 13.7281L11.9203 13.6297L11.0871 13.4961L10.2926 13.1656L9.59297 12.7613L9.18516 12.4871L9.15352 12.3254L9.1957 12.1742L9.32227 12.0793L9.68789 12.1602L10.5633 12.4309H10.5668C10.7496 12.4695 11.6566 12.6523 11.7094 12.6523C11.727 12.6523 11.8746 12.677 12.0152 12.698C12.2684 12.7402 12.5531 12.7859 12.6234 12.7859C12.7324 12.7859 13.6113 12.8352 13.6219 12.8352C13.6289 12.8352 14.3496 12.8211 14.4234 12.8211C14.5008 12.8211 14.8594 12.6945 14.9297 12.6699L14.9402 12.6664L15.1934 12.3641L15.4359 11.9457L15.4324 11.9387Z" fill="black"/>
<path d="M9.41875 11.8576C9.49961 11.84 9.58398 11.84 9.66484 11.8576L9.68242 11.7872C9.66484 11.7837 9.23594 11.6747 8.8457 12.1318L8.89844 12.1775C9.08828 11.956 9.28516 11.8822 9.41875 11.8576Z" fill="black"/>
<path d="M9.30547 11.5797L9.54453 11.5234L9.53047 11.4531L9.17188 11.5375L9.18242 11.5797H9.30547Z" fill="black"/>
<path d="M9.18867 11.6082L9.30469 11.5801H9.18164L9.18867 11.6082Z" fill="black"/>
<path d="M13.5598 11.2637C13.7004 11.3551 13.8305 11.4605 13.9465 11.5801H14.0449C13.9465 11.4676 13.8375 11.3691 13.718 11.2812L13.9957 11.3129L14.2348 11.2637L14.2207 11.1934L13.9922 11.2426L13.5914 11.1969C13.5281 11.1547 13.4613 11.1195 13.391 11.0879L13.3594 11.1512L13.5598 11.2637Z" fill="black"/>
<path d="M14.1668 11.8754L14.2301 11.8402C14.1773 11.7488 14.1141 11.6609 14.0438 11.5801H13.9453C14.0297 11.6715 14.1035 11.7699 14.1668 11.8754Z" fill="black"/>
<path d="M9.64687 10.0359L9.76992 10.1063L9.77695 10.152L9.82969 10.1414L10.2199 10.3699H10.2234C10.3395 10.4262 10.4766 10.4965 10.4941 10.5176C10.5187 10.5527 10.7895 10.7039 11.0109 10.827L11.0145 10.8305H11.018C11.1973 10.8691 11.5488 10.9465 11.6051 10.9641C11.6473 10.9781 11.7773 10.9816 11.8934 10.9816C11.9953 10.9816 12.0902 10.9781 12.1078 10.9781L12.5297 10.9289L12.8355 10.8164L12.832 10.8059L12.9234 10.8656V10.9535L12.7934 11.073L12.498 11.1961L12.4453 11.2418L12.4488 11.2172C12.3152 11.2066 12.157 11.1855 12.1324 11.175C12.1148 11.1645 12.0867 11.1434 11.4223 11.1434C11.2957 11.1434 10.9793 11.073 10.9406 11.059C10.9055 11.0484 10.6312 10.9641 10.5785 10.95C10.5328 10.9043 10.2551 10.6477 10.0336 10.5176L9.99844 10.5809C10.227 10.7145 10.5328 11.0027 10.5328 11.0062L10.5398 11.0133L10.5469 11.0168C10.5504 11.0168 10.8809 11.1152 10.916 11.1258C10.9582 11.1398 11.2816 11.2137 11.4223 11.2137C11.9742 11.2137 12.0762 11.2277 12.0973 11.2348C12.1359 11.2559 12.2836 11.2734 12.3961 11.284L12.3574 11.3156L12.1957 11.5793H12.2801L12.4137 11.3613L12.5402 11.2559L12.8355 11.1328L13.0008 10.9816V10.8234L12.8215 10.7074L12.6984 10.3207L12.4313 9.96563L12.1535 9.80039L11.482 9.45234L10.9652 9.40313L10.3535 9.46641L9.88242 9.6457L9.62227 9.96914L9.46406 10.0535L9.40078 9.99727L9.43242 9.80742L9.73125 9.51914L9.99492 9.30469L10.3641 9.23438L10.7789 9.22383H11.2219L11.584 9.23438L11.9602 9.4418C12.1219 9.52617 12.3082 9.63164 12.3258 9.65977C12.3504 9.70898 12.6246 9.96914 12.7125 10.05L12.9621 10.3734L12.9973 10.6336L13.0676 10.623L13.0289 10.3418L12.7652 10.0008L12.7617 9.99727C12.5895 9.83906 12.4031 9.65625 12.3855 9.62461C12.3609 9.57187 12.1254 9.44531 11.9883 9.375L11.7316 9.23438L12.3187 9.24492L12.5297 9.375L12.8074 9.62812L12.9586 9.81797L13.0324 10.2152L13.1027 10.2012L13.0254 9.78633L12.8602 9.58242L12.5719 9.31875L12.3363 9.17461L11.5875 9.16055L11.2184 9.14648H10.7719L10.3535 9.16055L9.95625 9.23789L9.67852 9.46641L9.35859 9.77227L9.31641 10.0254L9.45 10.1414L9.64687 10.0359ZM12.3891 10.0219L12.6387 10.3559L12.7652 10.7566L12.7793 10.7637L12.5297 10.8586L12.1148 10.9078C11.9566 10.9113 11.6859 10.9148 11.6367 10.8973C11.5664 10.8727 11.1023 10.7742 11.0461 10.7602C10.8246 10.6406 10.582 10.5035 10.5574 10.4754C10.5293 10.4367 10.3605 10.3523 10.2621 10.3031L9.9457 10.1168L10.1777 10.0746C10.3219 10.057 10.7016 10.0148 10.7508 10.0148C10.7719 10.0148 10.8492 10.0219 10.9301 10.0289C11.1691 10.05 11.2816 10.057 11.3133 10.05C11.3484 10.043 11.6824 10.0078 11.9004 9.99023L12.2449 9.96563L12.2414 9.93047L12.3891 10.0219ZM9.92812 9.70547L10.3711 9.53672L10.9688 9.47695L11.4645 9.52617L12.1219 9.86719L12.1816 9.90234L11.8898 9.92344C11.8336 9.92695 11.3414 9.97266 11.2922 9.98672C11.2605 9.99375 11.0566 9.97266 10.9301 9.96211C10.8387 9.95508 10.7684 9.94805 10.7437 9.94805C10.6805 9.94805 10.1813 10.0078 10.1602 10.0113L9.84375 10.0711L9.69961 9.98672L9.92812 9.70547Z" fill="black"/>
<path d="M12.1629 11.6324C12.082 11.6781 12.0012 11.7133 11.9168 11.7484C11.8781 11.7484 11.6602 11.8504 11.4844 11.9348C11.4527 11.9453 11.1645 12.0332 11.0977 12.0438L11.1082 12.1141C11.182 12.1 11.4949 12.0051 11.509 12.0016L11.5125 11.998C11.6883 11.9137 11.8887 11.8223 11.9168 11.8152C11.959 11.8117 12.1137 11.7344 12.2016 11.6887L12.2086 11.6852L12.2754 11.5762H12.191L12.1629 11.6324Z" fill="black"/>
<path d="M12.5008 8.75391L12.4551 8.78555C12.4762 8.78203 12.4973 8.78203 12.5184 8.77852L12.5008 8.75391Z" fill="black"/>
<path d="M12.6668 9.11523L12.7582 9.27344L12.7125 9.43164L12.7828 9.45273L12.8355 9.26641L12.7301 9.08008L12.5227 8.78125C12.5016 8.78477 12.4805 8.78477 12.4594 8.78828L12.4453 8.79883L12.6668 9.11523Z" fill="black"/>
<path d="M14.8176 9.03047L15.1305 8.99883C15.1305 8.99883 15.9109 9.23086 15.9426 9.2625C15.9742 9.29414 16.368 9.46641 16.368 9.46641L16.6 9.4875L16.6316 9.27656L16.4594 9.03047L15.9637 8.66484L15.3977 8.39062L15.0426 8.26758L14.916 6.47461L14.6172 6.02812L14.1707 5.6625L13.5941 5.37773L12.9965 5.36719L11.8715 5.50781L10.8379 5.71172L10.7781 5.53594C10.6973 5.51484 10.6164 5.50078 10.5355 5.49023C10.4758 5.49023 9.92734 5.65898 9.92734 5.65898L9.59336 5.83477L9.52305 6.03867L9.04492 6.30234L8.6582 6.7875L8.43672 7.25508C8.43672 7.25508 8.32422 7.72266 8.32422 7.75078C8.32422 7.77891 8.38398 8.03555 8.42617 8.05312C8.46836 8.0707 8.78125 8.15508 8.78125 8.15508L9.19258 8.35898L9.78672 8.70352L10.525 8.94609C10.525 8.94609 11.2246 8.89687 11.2949 8.89687C11.3652 8.89687 12.4199 8.78437 12.4797 8.78437C12.5395 8.78437 13.6961 8.69297 13.7277 8.69297C13.7594 8.69297 14.4484 8.68242 14.4484 8.68242L14.7227 8.925L14.8176 9.03047Z" fill="#C82727"/>
<path d="M14.5437 10.027L14.6352 10.2203L14.6914 10.4418L14.6633 10.5824L14.5437 10.8883L14.1641 10.9516L13.5523 10.8426L13.4785 10.6281L13.5066 10.4348L13.5699 10.1289L13.7281 9.95312L13.8301 10.0094L14.5051 10.027" fill="black"/>
<path d="M11.7598 9.99883L11.8723 10.2133L11.8828 10.4734L11.8266 10.7055L11.707 10.8918L11.5137 10.9023L10.7719 10.6809L10.4766 10.4207L10.5152 10.2555L10.6172 10.0973L10.7543 9.98828L11.2746 10.0023C11.2676 9.99883 11.7387 10.0375 11.7598 9.99883Z" fill="black"/>
<path d="M16.5367 9.05938L16.2484 8.80625L15.8336 8.52852L15.1516 8.27891L15.0566 8.24023L15.0285 7.65313C14.9934 7.36484 14.9441 6.92891 14.9441 6.89375C14.9441 6.84453 14.9195 6.48594 14.9195 6.47187V6.46484L14.7156 6.0957L14.3746 5.74414L13.8508 5.44531L13.4148 5.32227H12.8172L12.2301 5.39609C11.9945 5.43477 11.6254 5.49453 11.5832 5.49453C11.5199 5.49453 11.0277 5.60703 10.9715 5.61758L10.7992 5.66328L10.8273 5.64922L10.7711 5.53672L10.5883 5.46641L10.3211 5.49102L9.89219 5.59648L9.56875 5.80391L9.50195 5.97617L9.54766 5.99375L9.36836 6.03945H9.36133L8.98164 6.27852L8.71797 6.57734L8.47891 6.97813L8.28906 7.63203V7.86758L8.41211 8.08555L9.18203 8.35977L9.43867 8.5918L10.0117 8.85195L10.518 8.97852L11.4637 8.91523L12.8313 8.76758L13.8051 8.69375L14.6137 8.7043L15.468 8.82734L16.143 9.14727L16.1746 9.08398L15.4926 8.76055L14.6242 8.6375L13.8051 8.62344L12.8277 8.69727L11.4602 8.84492L10.5285 8.90469L10.0434 8.78516L9.48438 8.52852L9.22422 8.29297L8.46484 8.02227L8.36641 7.84648V7.63906L8.54922 7.00625L8.78125 6.61953L9.03438 6.33125L9.39648 6.10273L10.9926 5.68438C11.2 5.63867 11.548 5.56133 11.5902 5.56133C11.6535 5.56133 12.1879 5.47344 12.2477 5.46289L12.8242 5.38906H13.4078L13.8191 5.50859L14.3289 5.80039L14.6559 6.13789L14.8457 6.48594C14.8527 6.61602 14.8703 6.85859 14.8703 6.89375C14.8703 6.94297 14.9477 7.58984 14.9582 7.66016L14.9863 8.21211L14.5715 8.05391L13.7523 7.96602L13.1336 7.90273L12.5254 7.95195L11.8223 8.02578L11.0031 8.21211L10.3879 8.35977L9.97656 8.38438L9.44922 8.27891L9.71641 8.47227L9.93438 8.59883L10.4336 8.72187L10.9223 8.73594H10.9258L11.3617 8.68672L11.977 8.58828L12.5781 8.48984L13.2531 8.44062L13.7207 8.41602L14.2832 8.45117L15.0461 8.54961L16.0305 8.73594L16.2027 8.84844L16.477 9.0875L16.5543 9.2668L16.5367 9.40039L16.3891 9.41094L16.1008 9.27734L15.5699 9.06641L15.1516 8.93984L14.7859 8.97852L14.793 9.04883L15.1445 9.01367L15.5418 9.1332L16.0691 9.34063L16.375 9.48125L16.5965 9.46719L16.6281 9.25625L16.5367 9.05938ZM9.57578 5.9832L9.62852 5.84961L9.92031 5.66328L10.3316 5.56484L10.5813 5.54023L10.7219 5.59297L10.7605 5.67031L9.57578 5.9832ZM15.0566 8.49336L14.2867 8.39492L13.7172 8.35625L13.2461 8.38086L12.5676 8.43008L11.9594 8.52852L11.3441 8.62695L10.9152 8.67617L10.4406 8.66563L9.95547 8.54609L9.75156 8.42656H9.74805L9.9625 8.46875L10.3879 8.44414L11.0102 8.29648L11.8223 8.11367L12.5219 8.03984L13.123 7.99062L13.7348 8.05039L14.5434 8.13477L15.1199 8.35625L15.7949 8.60234L15.8723 8.65508L15.0566 8.49336Z" fill="black"/>
<path d="M11.5275 10.5812C11.6448 10.5463 11.716 10.4381 11.6867 10.3394C11.6574 10.2408 11.5385 10.1891 11.4213 10.224C11.304 10.2588 11.2328 10.3671 11.2621 10.4657C11.2914 10.5643 11.4103 10.616 11.5275 10.5812Z" fill="white"/>
<path d="M10.9547 10.5598C11.0052 10.5598 11.0461 10.5188 11.0461 10.4684C11.0461 10.4179 11.0052 10.377 10.9547 10.377C10.9042 10.377 10.8633 10.4179 10.8633 10.4684C10.8633 10.5188 10.9042 10.5598 10.9547 10.5598Z" fill="white"/>
<path d="M10.898 10.2766C10.9485 10.2766 10.9895 10.2356 10.9895 10.1852C10.9895 10.1347 10.9485 10.0938 10.898 10.0938C10.8476 10.0938 10.8066 10.1347 10.8066 10.1852C10.8066 10.2356 10.8476 10.2766 10.898 10.2766Z" fill="white"/>
<path d="M13.8754 10.6766C13.922 10.6766 13.9598 10.6388 13.9598 10.5922C13.9598 10.5456 13.922 10.5078 13.8754 10.5078C13.8288 10.5078 13.791 10.5456 13.791 10.5922C13.791 10.6388 13.8288 10.6766 13.8754 10.6766Z" fill="white"/>
<path d="M13.8648 10.3566C13.9153 10.3566 13.9563 10.3157 13.9563 10.2652C13.9563 10.2148 13.9153 10.1738 13.8648 10.1738C13.8144 10.1738 13.7734 10.2148 13.7734 10.2652C13.7734 10.3157 13.8144 10.3566 13.8648 10.3566Z" fill="white"/>
<path d="M14.3684 10.6176C14.4596 10.6176 14.5336 10.5436 14.5336 10.4523C14.5336 10.3611 14.4596 10.2871 14.3684 10.2871C14.2771 10.2871 14.2031 10.3611 14.2031 10.4523C14.2031 10.5436 14.2771 10.6176 14.3684 10.6176Z" fill="white"/>
</g>
<defs>
<clipPath id="clip0_1439_2707">
<rect width="18" height="18" fill="white" transform="translate(2.33398 2.33398)"/>
</clipPath>
</defs>
</svg>
