<svg width="24" height="23" viewBox="0 0 24 23" fill="none" xmlns="http://www.w3.org/2000/svg">
<path d="M0 4.66856C0 2.09018 2.09019 0 4.66856 0H18.6743C21.2526 0 23.3428 2.09019 23.3428 4.66856V18C23.3428 20.5784 21.2526 22.6686 18.6742 22.6686H4.66855C2.09018 22.6686 0 20.5784 0 18V4.66856Z" fill="#E5E5E5"/>
<g clip-path="url(#clip0_1439_2709)">
<path d="M10.8342 6.10935C12.6347 6.10935 14.0942 5.26421 14.0942 4.22167C14.0942 3.17913 12.6347 2.33398 10.8342 2.33398C9.03377 2.33398 7.57422 3.17913 7.57422 4.22167C7.57422 5.26421 9.03377 6.10935 10.8342 6.10935Z" fill="#E6007A"/>
<path d="M10.8342 20.332C12.6347 20.332 14.0942 19.4869 14.0942 18.4443C14.0942 17.4018 12.6347 16.5566 10.8342 16.5566C9.03377 16.5566 7.57422 17.4018 7.57422 18.4443C7.57422 19.4869 9.03377 20.332 10.8342 20.332Z" fill="#E6007A"/>
<path d="M6.29112 8.72272C7.19134 7.17038 7.1855 5.48909 6.27807 4.96747C5.37063 4.44585 3.90523 5.28142 3.00501 6.83376C2.10478 8.38611 2.11062 10.0674 3.01806 10.589C3.92549 11.1106 5.39089 10.2751 6.29112 8.72272Z" fill="#E6007A"/>
<path d="M18.6619 15.8328C19.5622 14.2804 19.5568 12.5994 18.65 12.0782C17.7432 11.5569 16.2783 12.3927 15.3781 13.9451C14.4778 15.4974 14.4832 17.1784 15.39 17.6997C16.2968 18.221 17.7617 17.3851 18.6619 15.8328Z" fill="#E6007A"/>
<path d="M6.27807 17.7005C7.1855 17.1789 7.19134 15.4976 6.29112 13.9452C5.39089 12.3929 3.92549 11.5573 3.01806 12.079C2.11062 12.6006 2.10478 14.2819 3.00501 15.8342C3.90523 17.3866 5.37063 18.2221 6.27807 17.7005Z" fill="#E6007A"/>
<path d="M18.65 10.5898C19.5568 10.0685 19.5622 8.38754 18.6619 6.8352C17.7617 5.28285 16.2968 4.447 15.39 4.96827C14.4832 5.48954 14.4778 7.17053 15.3781 8.72288C16.2783 10.2752 17.7432 11.1111 18.65 10.5898Z" fill="#E6007A"/>
</g>
<defs>
<clipPath id="clip0_1439_2709">
<rect width="17" height="18" fill="white" transform="translate(2.33398 2.33398)"/>
</clipPath>
</defs>
</svg>
