<svg width="81" height="80" viewBox="0 0 81 80" fill="none" xmlns="http://www.w3.org/2000/svg">
<path d="M39.9834 13.1748C40.5396 13.0566 41.1147 13.0566 41.6709 13.1748C42.3364 13.3163 42.9415 13.6783 43.7744 14.1592L61.6592 24.4854C62.4921 24.9662 63.1082 25.3088 63.5635 25.8145C63.9439 26.237 64.2315 26.7347 64.4072 27.2754C64.6175 27.9224 64.6055 28.6273 64.6055 29.5889V50.2412C64.6055 51.203 64.6175 51.9076 64.4072 52.5547C64.2315 53.0956 63.944 53.5939 63.5635 54.0166C63.1082 54.5221 62.4919 54.8639 61.6592 55.3447L43.7744 65.6709C42.9415 66.1518 42.3364 66.5148 41.6709 66.6562C41.1147 66.7744 40.5396 66.7745 39.9834 66.6562C39.3179 66.5148 38.7137 66.1517 37.8809 65.6709L19.9951 55.3447C19.1624 54.864 18.546 54.5221 18.0908 54.0166C17.7103 53.5939 17.4228 53.0956 17.2471 52.5547C17.0369 51.9077 17.0488 51.2029 17.0488 50.2412V29.5889C17.0488 28.6273 17.0368 27.9224 17.2471 27.2754C17.4228 26.7347 17.7105 26.237 18.0908 25.8145C18.546 25.3089 19.1623 24.9661 19.9951 24.4854L37.8809 14.1592C38.7136 13.6784 39.318 13.3163 39.9834 13.1748Z" fill="url(#paint0_linear_46765_44146)" stroke="url(#paint1_linear_46765_44146)" stroke-width="2"/>
<g filter="url(#filter0_d_46765_44146)">
<path d="M23.8633 43.0673V41.8917H27.3901V42.5926C27.3901 43.1125 27.571 43.2934 28.1136 43.2934H32.3638C32.9064 43.2934 33.0873 43.1125 33.0873 42.5926V41.9143C33.0873 41.3943 32.9064 41.2587 32.3638 41.1909L26.8249 40.6483C24.9937 40.49 24.0894 39.5857 24.0894 37.9353V36.5337C24.0894 34.7929 25.1067 33.7981 26.8249 33.7981H33.6977C35.4159 33.7981 36.4332 34.8155 36.4332 36.5563V37.5962H32.9064V37.031C32.9064 36.5111 32.7256 36.3302 32.183 36.3302H28.4753C27.9327 36.3302 27.7518 36.5111 27.7518 37.031V37.3023C27.7518 37.8223 27.9327 37.958 28.4753 38.0258L34.0142 38.5684C35.8454 38.7266 36.7497 39.6309 36.7497 41.2813V43.0899C36.7497 44.8307 35.7324 45.8255 34.0142 45.8255H26.5988C24.8806 45.8255 23.8633 44.8081 23.8633 43.0673Z" fill="black"/>
<path d="M38.523 43.0673V41.8917H42.0499V42.5926C42.0499 43.1125 42.2307 43.2934 42.7733 43.2934H47.0236C47.5662 43.2934 47.747 43.1125 47.747 42.5926V41.9143C47.747 41.3943 47.5662 41.2587 47.0236 41.1909L41.4847 40.6483C39.6534 40.49 38.7491 39.5857 38.7491 37.9353V36.5337C38.7491 34.7929 39.7665 33.7981 41.4847 33.7981H48.3575C50.0756 33.7981 51.093 34.8155 51.093 36.5563V37.5962H47.5662V37.031C47.5662 36.5111 47.3853 36.3302 46.8427 36.3302H43.135C42.5925 36.3302 42.4116 36.5111 42.4116 37.031V37.3023C42.4116 37.8223 42.5925 37.958 43.135 38.0258L48.674 38.5684C50.5052 38.7266 51.4095 39.6309 51.4095 41.2813V43.0899C51.4095 44.8307 50.3922 45.8255 48.674 45.8255H41.2586C39.5404 45.8255 38.523 44.8081 38.523 43.0673Z" fill="black"/>
<path d="M57.5161 32.6677H53.7858V30H57.5161V32.6677ZM57.5161 45.8255H53.7858V33.7981H57.5161V45.8255Z" fill="#FF4F20"/>
</g>
<defs>
<filter id="filter0_d_46765_44146" x="23.4633" y="29.8" width="34.4523" height="16.6242" filterUnits="userSpaceOnUse" color-interpolation-filters="sRGB">
<feFlood flood-opacity="0" result="BackgroundImageFix"/>
<feColorMatrix in="SourceAlpha" type="matrix" values="0 0 0 0 0 0 0 0 0 0 0 0 0 0 0 0 0 0 127 0" result="hardAlpha"/>
<feOffset dy="0.2"/>
<feGaussianBlur stdDeviation="0.2"/>
<feComposite in2="hardAlpha" operator="out"/>
<feColorMatrix type="matrix" values="0 0 0 0 0 0 0 0 0 0 0 0 0 0 0 0 0 0 0.25 0"/>
<feBlend mode="normal" in2="BackgroundImageFix" result="effect1_dropShadow_46765_44146"/>
<feBlend mode="normal" in="SourceGraphic" in2="effect1_dropShadow_46765_44146" result="shape"/>
</filter>
<linearGradient id="paint0_linear_46765_44146" x1="40.8274" y1="14.0859" x2="40.8274" y2="65.7445" gradientUnits="userSpaceOnUse">
<stop stop-color="#ECEFF0"/>
<stop offset="1" stop-color="#CBCBCB"/>
</linearGradient>
<linearGradient id="paint1_linear_46765_44146" x1="40.8274" y1="14.0859" x2="40.8274" y2="65.7445" gradientUnits="userSpaceOnUse">
<stop stop-color="#ADADAD"/>
<stop offset="1" stop-color="#707070"/>
</linearGradient>
</defs>
</svg>
