<svg width="80" height="80" viewBox="0 0 80 80" fill="none" xmlns="http://www.w3.org/2000/svg">
<path d="M39.0693 13.1748C39.6256 13.0566 40.2006 13.0566 40.7568 13.1748C41.4224 13.3163 42.0274 13.6783 42.8604 14.1592L60.7451 24.4854C61.5781 24.9662 62.1941 25.3088 62.6494 25.8145C63.0299 26.237 63.3174 26.7347 63.4932 27.2754C63.7034 27.9224 63.6914 28.6273 63.6914 29.5889V50.2412C63.6914 51.203 63.7034 51.9076 63.4932 52.5547C63.3174 53.0956 63.03 53.5939 62.6494 54.0166C62.1942 54.5221 61.5779 54.8639 60.7451 55.3447L42.8604 65.6709C42.0274 66.1518 41.4224 66.5148 40.7568 66.6562C40.2006 66.7744 39.6255 66.7745 39.0693 66.6562C38.4039 66.5148 37.7996 66.1517 36.9668 65.6709L19.0811 55.3447C18.2484 54.864 17.6319 54.5221 17.1768 54.0166C16.7962 53.5939 16.5088 53.0956 16.333 52.5547C16.1228 51.9077 16.1348 51.2029 16.1348 50.2412V29.5889C16.1348 28.6273 16.1228 27.9224 16.333 27.2754C16.5087 26.7347 16.7964 26.237 17.1768 25.8145C17.632 25.3089 18.2483 24.9661 19.0811 24.4854L36.9668 14.1592C37.7995 13.6784 38.404 13.3163 39.0693 13.1748Z" fill="url(#paint0_linear_46765_44146)" stroke="url(#paint1_linear_46765_44146)" stroke-width="2"/>
<g filter="url(#filter0_d_46765_44146)">
<path d="M22.9492 43.0673V41.8917H26.476V42.5926C26.476 43.1125 26.6569 43.2934 27.1995 43.2934H31.4498C31.9924 43.2934 32.1732 43.1125 32.1732 42.5926V41.9143C32.1732 41.3943 31.9924 41.2587 31.4498 41.1909L25.9108 40.6483C24.0796 40.49 23.1753 39.5857 23.1753 37.9353V36.5337C23.1753 34.7929 24.1926 33.7981 25.9108 33.7981H32.7836C34.5018 33.7981 35.5192 34.8155 35.5192 36.5563V37.5962H31.9924V37.031C31.9924 36.5111 31.8115 36.3302 31.2689 36.3302H27.5612C27.0186 36.3302 26.8378 36.5111 26.8378 37.031V37.3023C26.8378 37.8223 27.0186 37.958 27.5612 38.0258L33.1001 38.5684C34.9314 38.7266 35.8357 39.6309 35.8357 41.2813V43.0899C35.8357 44.8307 34.8183 45.8255 33.1001 45.8255H25.6848C23.9666 45.8255 22.9492 44.8081 22.9492 43.0673Z" fill="black"/>
<path d="M37.609 43.0673V41.8917H41.1358V42.5926C41.1358 43.1125 41.3167 43.2934 41.8593 43.2934H46.1095C46.6521 43.2934 46.833 43.1125 46.833 42.5926V41.9143C46.833 41.3943 46.6521 41.2587 46.1095 41.1909L40.5706 40.6483C38.7394 40.49 37.8351 39.5857 37.8351 37.9353V36.5337C37.8351 34.7929 38.8524 33.7981 40.5706 33.7981H47.4434C49.1616 33.7981 50.1789 34.8155 50.1789 36.5563V37.5962H46.6521V37.031C46.6521 36.5111 46.4713 36.3302 45.9287 36.3302H42.221C41.6784 36.3302 41.4975 36.5111 41.4975 37.031V37.3023C41.4975 37.8223 41.6784 37.958 42.221 38.0258L47.7599 38.5684C49.5911 38.7266 50.4954 39.6309 50.4954 41.2813V43.0899C50.4954 44.8307 49.4781 45.8255 47.7599 45.8255H40.3445C38.6263 45.8255 37.609 44.8081 37.609 43.0673Z" fill="black"/>
<path d="M56.602 32.6677H52.8717V30H56.602V32.6677ZM56.602 45.8255H52.8717V33.7981H56.602V45.8255Z" fill="#FF4F20"/>
</g>
<defs>
<filter id="filter0_d_46765_44146" x="22.5492" y="29.8" width="34.4523" height="16.6242" filterUnits="userSpaceOnUse" color-interpolation-filters="sRGB">
<feFlood flood-opacity="0" result="BackgroundImageFix"/>
<feColorMatrix in="SourceAlpha" type="matrix" values="0 0 0 0 0 0 0 0 0 0 0 0 0 0 0 0 0 0 127 0" result="hardAlpha"/>
<feOffset dy="0.2"/>
<feGaussianBlur stdDeviation="0.2"/>
<feComposite in2="hardAlpha" operator="out"/>
<feColorMatrix type="matrix" values="0 0 0 0 0 0 0 0 0 0 0 0 0 0 0 0 0 0 0.25 0"/>
<feBlend mode="normal" in2="BackgroundImageFix" result="effect1_dropShadow_46765_44146"/>
<feBlend mode="normal" in="SourceGraphic" in2="effect1_dropShadow_46765_44146" result="shape"/>
</filter>
<linearGradient id="paint0_linear_46765_44146" x1="39.9133" y1="14.0859" x2="39.9133" y2="65.7445" gradientUnits="userSpaceOnUse">
<stop stop-color="white"/>
<stop offset="1" stop-color="#ECEFF0"/>
</linearGradient>
<linearGradient id="paint1_linear_46765_44146" x1="39.9133" y1="14.0859" x2="39.9133" y2="65.7445" gradientUnits="userSpaceOnUse">
<stop stop-color="#DADADA"/>
<stop offset="1" stop-color="#A5A5A5"/>
</linearGradient>
</defs>
</svg>
