<svg width="127" height="98" viewBox="0 0 127 98" fill="none" xmlns="http://www.w3.org/2000/svg">
<path d="M63.0693 13.1748C63.6256 13.0566 64.2006 13.0566 64.7568 13.1748C65.4224 13.3163 66.0274 13.6783 66.8604 14.1592L84.7451 24.4854C85.5781 24.9662 86.1941 25.3088 86.6494 25.8145C87.0299 26.237 87.3174 26.7347 87.4932 27.2754C87.7034 27.9224 87.6914 28.6273 87.6914 29.5889V50.2412C87.6914 51.203 87.7034 51.9076 87.4932 52.5547C87.3174 53.0956 87.03 53.5939 86.6494 54.0166C86.1942 54.5221 85.5779 54.8639 84.7451 55.3447L66.8604 65.6709C66.0274 66.1518 65.4224 66.5148 64.7568 66.6562C64.2006 66.7744 63.6255 66.7745 63.0693 66.6562C62.4039 66.5148 61.7996 66.1517 60.9668 65.6709L43.0811 55.3447C42.2484 54.864 41.6319 54.5221 41.1768 54.0166C40.7962 53.5939 40.5088 53.0956 40.333 52.5547C40.1228 51.9077 40.1348 51.2029 40.1348 50.2412V29.5889C40.1348 28.6273 40.1228 27.9224 40.333 27.2754C40.5087 26.7347 40.7964 26.237 41.1768 25.8145C41.632 25.3089 42.2483 24.9661 43.0811 24.4854L60.9668 14.1592C61.7995 13.6784 62.404 13.3163 63.0693 13.1748Z" fill="url(#paint0_linear_46782_44151)" stroke="url(#paint1_linear_46782_44151)" stroke-width="2"/>
<g filter="url(#filter0_d_46782_44151)">
<path d="M46.9492 43.0673V41.8917H50.476V42.5926C50.476 43.1125 50.6569 43.2934 51.1995 43.2934H55.4498C55.9924 43.2934 56.1732 43.1125 56.1732 42.5926V41.9143C56.1732 41.3943 55.9924 41.2587 55.4498 41.1909L49.9108 40.6483C48.0796 40.49 47.1753 39.5857 47.1753 37.9353V36.5337C47.1753 34.7929 48.1926 33.7981 49.9108 33.7981H56.7836C58.5018 33.7981 59.5192 34.8155 59.5192 36.5563V37.5962H55.9924V37.031C55.9924 36.5111 55.8115 36.3302 55.2689 36.3302H51.5612C51.0186 36.3302 50.8378 36.5111 50.8378 37.031V37.3023C50.8378 37.8223 51.0186 37.958 51.5612 38.0258L57.1001 38.5684C58.9314 38.7266 59.8357 39.6309 59.8357 41.2813V43.0899C59.8357 44.8307 58.8183 45.8255 57.1001 45.8255H49.6848C47.9666 45.8255 46.9492 44.8081 46.9492 43.0673Z" fill="black"/>
<path d="M61.609 43.0673V41.8917H65.1358V42.5926C65.1358 43.1125 65.3167 43.2934 65.8593 43.2934H70.1095C70.6521 43.2934 70.833 43.1125 70.833 42.5926V41.9143C70.833 41.3943 70.6521 41.2587 70.1095 41.1909L64.5706 40.6483C62.7394 40.49 61.8351 39.5857 61.8351 37.9353V36.5337C61.8351 34.7929 62.8524 33.7981 64.5706 33.7981H71.4434C73.1616 33.7981 74.1789 34.8155 74.1789 36.5563V37.5962H70.6521V37.031C70.6521 36.5111 70.4713 36.3302 69.9287 36.3302H66.221C65.6784 36.3302 65.4975 36.5111 65.4975 37.031V37.3023C65.4975 37.8223 65.6784 37.958 66.221 38.0258L71.7599 38.5684C73.5911 38.7266 74.4954 39.6309 74.4954 41.2813V43.0899C74.4954 44.8307 73.4781 45.8255 71.7599 45.8255H64.3445C62.6263 45.8255 61.609 44.8081 61.609 43.0673Z" fill="black"/>
<path d="M80.602 32.6677H76.8717V30H80.602V32.6677ZM80.602 45.8255H76.8717V33.7981H80.602V45.8255Z" fill="#FF4F20"/>
</g>
<path d="M4.826 94.196C4.07 94.196 3.40267 94.0607 2.824 93.79C2.24533 93.5193 1.79267 93.132 1.466 92.628C1.13933 92.124 0.976 91.5173 0.976 90.808V90.416H2.796V90.808C2.796 91.396 2.978 91.8393 3.342 92.138C3.706 92.4273 4.20067 92.572 4.826 92.572C5.46067 92.572 5.932 92.446 6.24 92.194C6.55733 91.942 6.716 91.62 6.716 91.228C6.716 90.9573 6.63667 90.738 6.478 90.57C6.32867 90.402 6.10467 90.2667 5.806 90.164C5.51667 90.052 5.162 89.9493 4.742 89.856L4.42 89.786C3.748 89.6367 3.16933 89.45 2.684 89.226C2.208 88.9927 1.83933 88.6893 1.578 88.316C1.326 87.9427 1.2 87.4573 1.2 86.86C1.2 86.2627 1.34 85.754 1.62 85.334C1.90933 84.9047 2.31067 84.578 2.824 84.354C3.34667 84.1207 3.958 84.004 4.658 84.004C5.358 84.004 5.97867 84.1253 6.52 84.368C7.07067 84.6013 7.5 84.956 7.808 85.432C8.12533 85.8987 8.284 86.4867 8.284 87.196V87.616H6.464V87.196C6.464 86.8227 6.38933 86.524 6.24 86.3C6.1 86.0667 5.89467 85.8987 5.624 85.796C5.35333 85.684 5.03133 85.628 4.658 85.628C4.098 85.628 3.68267 85.7353 3.412 85.95C3.15067 86.1553 3.02 86.44 3.02 86.804C3.02 87.0467 3.08067 87.252 3.202 87.42C3.33267 87.588 3.524 87.728 3.776 87.84C4.028 87.952 4.35 88.05 4.742 88.134L5.064 88.204C5.764 88.3533 6.37067 88.5447 6.884 88.778C7.40667 89.0113 7.81267 89.3193 8.102 89.702C8.39133 90.0847 8.536 90.5747 8.536 91.172C8.536 91.7693 8.382 92.2967 8.074 92.754C7.77533 93.202 7.346 93.5567 6.786 93.818C6.23533 94.07 5.582 94.196 4.826 94.196ZM13.2742 94.196C12.5836 94.196 11.9629 94.056 11.4122 93.776C10.8616 93.496 10.4276 93.09 10.1102 92.558C9.7929 92.026 9.63423 91.3867 9.63423 90.64V90.416C9.63423 89.6693 9.7929 89.03 10.1102 88.498C10.4276 87.966 10.8616 87.56 11.4122 87.28C11.9629 87 12.5836 86.86 13.2742 86.86C13.9649 86.86 14.5856 87 15.1362 87.28C15.6869 87.56 16.1209 87.966 16.4382 88.498C16.7556 89.03 16.9142 89.6693 16.9142 90.416V90.64C16.9142 91.3867 16.7556 92.026 16.4382 92.558C16.1209 93.09 15.6869 93.496 15.1362 93.776C14.5856 94.056 13.9649 94.196 13.2742 94.196ZM13.2742 92.628C13.8156 92.628 14.2636 92.4553 14.6182 92.11C14.9729 91.7553 15.1502 91.2513 15.1502 90.598V90.458C15.1502 89.8047 14.9729 89.3053 14.6182 88.96C14.2729 88.6053 13.8249 88.428 13.2742 88.428C12.7329 88.428 12.2849 88.6053 11.9302 88.96C11.5756 89.3053 11.3982 89.8047 11.3982 90.458V90.598C11.3982 91.2513 11.5756 91.7553 11.9302 92.11C12.2849 92.4553 12.7329 92.628 13.2742 92.628ZM21.8885 94.196C21.1325 94.196 20.4652 94.0607 19.8865 93.79C19.3078 93.5193 18.8552 93.132 18.5285 92.628C18.2018 92.124 18.0385 91.5173 18.0385 90.808V90.416H19.8585V90.808C19.8585 91.396 20.0405 91.8393 20.4045 92.138C20.7685 92.4273 21.2632 92.572 21.8885 92.572C22.5232 92.572 22.9945 92.446 23.3025 92.194C23.6198 91.942 23.7785 91.62 23.7785 91.228C23.7785 90.9573 23.6992 90.738 23.5405 90.57C23.3912 90.402 23.1672 90.2667 22.8685 90.164C22.5792 90.052 22.2245 89.9493 21.8045 89.856L21.4825 89.786C20.8105 89.6367 20.2318 89.45 19.7465 89.226C19.2705 88.9927 18.9018 88.6893 18.6405 88.316C18.3885 87.9427 18.2625 87.4573 18.2625 86.86C18.2625 86.2627 18.4025 85.754 18.6825 85.334C18.9718 84.9047 19.3732 84.578 19.8865 84.354C20.4092 84.1207 21.0205 84.004 21.7205 84.004C22.4205 84.004 23.0412 84.1253 23.5825 84.368C24.1332 84.6013 24.5625 84.956 24.8705 85.432C25.1878 85.8987 25.3465 86.4867 25.3465 87.196V87.616H23.5265V87.196C23.5265 86.8227 23.4518 86.524 23.3025 86.3C23.1625 86.0667 22.9572 85.8987 22.6865 85.796C22.4158 85.684 22.0938 85.628 21.7205 85.628C21.1605 85.628 20.7452 85.7353 20.4745 85.95C20.2132 86.1553 20.0825 86.44 20.0825 86.804C20.0825 87.0467 20.1432 87.252 20.2645 87.42C20.3952 87.588 20.5865 87.728 20.8385 87.84C21.0905 87.952 21.4125 88.05 21.8045 88.134L22.1265 88.204C22.8265 88.3533 23.4332 88.5447 23.9465 88.778C24.4692 89.0113 24.8752 89.3193 25.1645 89.702C25.4538 90.0847 25.5985 90.5747 25.5985 91.172C25.5985 91.7693 25.4445 92.2967 25.1365 92.754C24.8378 93.202 24.4085 93.5567 23.8485 93.818C23.2978 94.07 22.6445 94.196 21.8885 94.196ZM30.3367 94.196C29.6461 94.196 29.0254 94.056 28.4747 93.776C27.9241 93.496 27.4901 93.09 27.1727 92.558C26.8554 92.026 26.6967 91.3867 26.6967 90.64V90.416C26.6967 89.6693 26.8554 89.03 27.1727 88.498C27.4901 87.966 27.9241 87.56 28.4747 87.28C29.0254 87 29.6461 86.86 30.3367 86.86C31.0274 86.86 31.6481 87 32.1987 87.28C32.7494 87.56 33.1834 87.966 33.5007 88.498C33.8181 89.03 33.9767 89.6693 33.9767 90.416V90.64C33.9767 91.3867 33.8181 92.026 33.5007 92.558C33.1834 93.09 32.7494 93.496 32.1987 93.776C31.6481 94.056 31.0274 94.196 30.3367 94.196ZM30.3367 92.628C30.8781 92.628 31.3261 92.4553 31.6807 92.11C32.0354 91.7553 32.2127 91.2513 32.2127 90.598V90.458C32.2127 89.8047 32.0354 89.3053 31.6807 88.96C31.3354 88.6053 30.8874 88.428 30.3367 88.428C29.7954 88.428 29.3474 88.6053 28.9927 88.96C28.6381 89.3053 28.4607 89.8047 28.4607 90.458V90.598C28.4607 91.2513 28.6381 91.7553 28.9927 92.11C29.3474 92.4553 29.7954 92.628 30.3367 92.628ZM37.369 94L34.877 84.2H36.781L38.853 92.81H39.049L41.121 84.2H43.025L40.533 94H37.369ZM45.9915 94.196C45.4968 94.196 45.0535 94.112 44.6615 93.944C44.2695 93.7667 43.9568 93.5147 43.7235 93.188C43.4995 92.852 43.3875 92.446 43.3875 91.97C43.3875 91.494 43.4995 91.0973 43.7235 90.78C43.9568 90.4533 44.2741 90.2107 44.6755 90.052C45.0861 89.884 45.5528 89.8 46.0755 89.8H47.9795V89.408C47.9795 89.0813 47.8768 88.8153 47.6715 88.61C47.4661 88.3953 47.1395 88.288 46.6915 88.288C46.2528 88.288 45.9261 88.3907 45.7115 88.596C45.4968 88.792 45.3568 89.0487 45.2915 89.366L43.6675 88.82C43.7795 88.4653 43.9568 88.1433 44.1995 87.854C44.4515 87.5553 44.7828 87.3173 45.1935 87.14C45.6135 86.9533 46.1221 86.86 46.7195 86.86C47.6341 86.86 48.3575 87.0887 48.8895 87.546C49.4215 88.0033 49.6875 88.666 49.6875 89.534V92.124C49.6875 92.404 49.8181 92.544 50.0795 92.544H50.6395V94H49.4635C49.1181 94 48.8335 93.916 48.6095 93.748C48.3855 93.58 48.2735 93.356 48.2735 93.076V93.062H48.0075C47.9701 93.174 47.8861 93.3233 47.7555 93.51C47.6248 93.6873 47.4195 93.846 47.1395 93.986C46.8595 94.126 46.4768 94.196 45.9915 94.196ZM46.2995 92.768C46.7941 92.768 47.1955 92.6327 47.5035 92.362C47.8208 92.082 47.9795 91.7133 47.9795 91.256V91.116H46.2015C45.8748 91.116 45.6181 91.186 45.4315 91.326C45.2448 91.466 45.1515 91.662 45.1515 91.914C45.1515 92.166 45.2495 92.3713 45.4455 92.53C45.6415 92.6887 45.9261 92.768 46.2995 92.768ZM51.9292 94V84.2H53.6932V94H51.9292ZM58.294 94.112C57.7526 94.112 57.2766 93.9907 56.866 93.748C56.4646 93.496 56.152 93.1507 55.928 92.712C55.704 92.2733 55.592 91.7693 55.592 91.2V87.056H57.356V91.06C57.356 91.5827 57.482 91.9747 57.734 92.236C57.9953 92.4973 58.364 92.628 58.84 92.628C59.3813 92.628 59.8013 92.4507 60.1 92.096C60.3986 91.732 60.548 91.228 60.548 90.584V87.056H62.312V94H60.576V93.09H60.324C60.212 93.3233 60.002 93.552 59.694 93.776C59.386 94 58.9193 94.112 58.294 94.112ZM67.4389 94.196C66.7483 94.196 66.1369 94.0513 65.6049 93.762C65.0823 93.4633 64.6716 93.048 64.3729 92.516C64.0836 91.9747 63.9389 91.34 63.9389 90.612V90.444C63.9389 89.716 64.0836 89.086 64.3729 88.554C64.6623 88.0127 65.0683 87.5973 65.5909 87.308C66.1136 87.0093 66.7203 86.86 67.4109 86.86C68.0923 86.86 68.6849 87.014 69.1889 87.322C69.6929 87.6207 70.0849 88.0407 70.3649 88.582C70.6449 89.114 70.7849 89.7347 70.7849 90.444V91.046H65.7309C65.7496 91.522 65.9269 91.9093 66.2629 92.208C66.5989 92.5067 67.0096 92.656 67.4949 92.656C67.9896 92.656 68.3536 92.5487 68.5869 92.334C68.8203 92.1193 68.9976 91.8813 69.1189 91.62L70.5609 92.376C70.4303 92.6187 70.2389 92.8847 69.9869 93.174C69.7443 93.454 69.4176 93.6967 69.0069 93.902C68.5963 94.098 68.0736 94.196 67.4389 94.196ZM65.7449 89.73H68.9929C68.9556 89.3287 68.7923 89.0067 68.5029 88.764C68.2229 88.5213 67.8543 88.4 67.3969 88.4C66.9209 88.4 66.5429 88.5213 66.2629 88.764C65.9829 89.0067 65.8103 89.3287 65.7449 89.73ZM75.8537 94V84.2H77.7017V94H75.8537ZM79.6011 94V87.056H81.3371V87.966H81.5891C81.7011 87.7233 81.9111 87.4947 82.2191 87.28C82.5271 87.056 82.9938 86.944 83.6191 86.944C84.1604 86.944 84.6318 87.07 85.0331 87.322C85.4438 87.5647 85.7611 87.9053 85.9851 88.344C86.2091 88.7733 86.3211 89.2773 86.3211 89.856V94H84.5571V89.996C84.5571 89.4733 84.4264 89.0813 84.1651 88.82C83.9131 88.5587 83.5491 88.428 83.0731 88.428C82.5318 88.428 82.1118 88.61 81.8131 88.974C81.5144 89.3287 81.3651 89.828 81.3651 90.472V94H79.6011ZM91.028 94.196C90.4774 94.196 89.9594 94.0607 89.474 93.79C88.998 93.51 88.6154 93.104 88.326 92.572C88.0367 92.04 87.892 91.396 87.892 90.64V90.416C87.892 89.66 88.0367 89.016 88.326 88.484C88.6154 87.952 88.998 87.5507 89.474 87.28C89.95 87 90.468 86.86 91.028 86.86C91.448 86.86 91.798 86.9113 92.078 87.014C92.3674 87.1073 92.6007 87.2287 92.778 87.378C92.9554 87.5273 93.0907 87.686 93.184 87.854H93.436V84.2H95.2V94H93.464V93.16H93.212C93.0534 93.4213 92.806 93.6593 92.47 93.874C92.1434 94.0887 91.6627 94.196 91.028 94.196ZM91.56 92.656C92.1014 92.656 92.554 92.4833 92.918 92.138C93.282 91.7833 93.464 91.27 93.464 90.598V90.458C93.464 89.786 93.282 89.2773 92.918 88.932C92.5634 88.5773 92.1107 88.4 91.56 88.4C91.0187 88.4 90.566 88.5773 90.202 88.932C89.838 89.2773 89.656 89.786 89.656 90.458V90.598C89.656 91.27 89.838 91.7833 90.202 92.138C90.566 92.4833 91.0187 92.656 91.56 92.656ZM100.32 94.196C99.6291 94.196 99.0178 94.0513 98.4858 93.762C97.9631 93.4633 97.5524 93.048 97.2538 92.516C96.9644 91.9747 96.8198 91.34 96.8198 90.612V90.444C96.8198 89.716 96.9644 89.086 97.2538 88.554C97.5431 88.0127 97.9491 87.5973 98.4718 87.308C98.9944 87.0093 99.6011 86.86 100.292 86.86C100.973 86.86 101.566 87.014 102.07 87.322C102.574 87.6207 102.966 88.0407 103.246 88.582C103.526 89.114 103.666 89.7347 103.666 90.444V91.046H98.6118C98.6304 91.522 98.8078 91.9093 99.1438 92.208C99.4798 92.5067 99.8904 92.656 100.376 92.656C100.87 92.656 101.234 92.5487 101.468 92.334C101.701 92.1193 101.878 91.8813 102 91.62L103.442 92.376C103.311 92.6187 103.12 92.8847 102.868 93.174C102.625 93.454 102.298 93.6967 101.888 93.902C101.477 94.098 100.954 94.196 100.32 94.196ZM98.6258 89.73H101.874C101.836 89.3287 101.673 89.0067 101.384 88.764C101.104 88.5213 100.735 88.4 100.278 88.4C99.8018 88.4 99.4238 88.5213 99.1438 88.764C98.8638 89.0067 98.6911 89.3287 98.6258 89.73ZM104.169 94L106.689 90.5L104.197 87.056H106.241L107.823 89.366H108.075L109.657 87.056H111.701L109.209 90.5L111.729 94H109.657L108.075 91.662H107.823L106.241 94H104.169ZM115.783 94.196C115.092 94.196 114.481 94.0513 113.949 93.762C113.426 93.4633 113.015 93.048 112.717 92.516C112.427 91.9747 112.283 91.34 112.283 90.612V90.444C112.283 89.716 112.427 89.086 112.717 88.554C113.006 88.0127 113.412 87.5973 113.935 87.308C114.457 87.0093 115.064 86.86 115.755 86.86C116.436 86.86 117.029 87.014 117.533 87.322C118.037 87.6207 118.429 88.0407 118.709 88.582C118.989 89.114 119.129 89.7347 119.129 90.444V91.046H114.075C114.093 91.522 114.271 91.9093 114.607 92.208C114.943 92.5067 115.353 92.656 115.839 92.656C116.333 92.656 116.697 92.5487 116.931 92.334C117.164 92.1193 117.341 91.8813 117.463 91.62L118.905 92.376C118.774 92.6187 118.583 92.8847 118.331 93.174C118.088 93.454 117.761 93.6967 117.351 93.902C116.94 94.098 116.417 94.196 115.783 94.196ZM114.089 89.73H117.337C117.299 89.3287 117.136 89.0067 116.847 88.764C116.567 88.5213 116.198 88.4 115.741 88.4C115.265 88.4 114.887 88.5213 114.607 88.764C114.327 89.0067 114.154 89.3287 114.089 89.73ZM123.583 94.196C122.677 94.196 121.935 94 121.357 93.608C120.778 93.216 120.428 92.656 120.307 91.928L121.931 91.508C121.996 91.8347 122.103 92.0913 122.253 92.278C122.411 92.4647 122.603 92.6 122.827 92.684C123.06 92.7587 123.312 92.796 123.583 92.796C123.993 92.796 124.297 92.726 124.493 92.586C124.689 92.4367 124.787 92.2547 124.787 92.04C124.787 91.8253 124.693 91.662 124.507 91.55C124.32 91.4287 124.021 91.3307 123.611 91.256L123.219 91.186C122.733 91.0927 122.29 90.9667 121.889 90.808C121.487 90.64 121.165 90.4113 120.923 90.122C120.68 89.8327 120.559 89.4593 120.559 89.002C120.559 88.3113 120.811 87.784 121.315 87.42C121.819 87.0467 122.481 86.86 123.303 86.86C124.077 86.86 124.721 87.0327 125.235 87.378C125.748 87.7233 126.084 88.176 126.243 88.736L124.605 89.24C124.53 88.8853 124.376 88.6333 124.143 88.484C123.919 88.3347 123.639 88.26 123.303 88.26C122.967 88.26 122.71 88.3207 122.533 88.442C122.355 88.554 122.267 88.7127 122.267 88.918C122.267 89.142 122.36 89.31 122.547 89.422C122.733 89.5247 122.985 89.604 123.303 89.66L123.695 89.73C124.217 89.8233 124.689 89.9493 125.109 90.108C125.538 90.2573 125.874 90.4767 126.117 90.766C126.369 91.046 126.495 91.4287 126.495 91.914C126.495 92.642 126.229 93.2067 125.697 93.608C125.174 94 124.469 94.196 123.583 94.196Z" fill="#0A0A0A"/>
<defs>
<filter id="filter0_d_46782_44151" x="46.5492" y="29.8" width="34.4523" height="16.6242" filterUnits="userSpaceOnUse" color-interpolation-filters="sRGB">
<feFlood flood-opacity="0" result="BackgroundImageFix"/>
<feColorMatrix in="SourceAlpha" type="matrix" values="0 0 0 0 0 0 0 0 0 0 0 0 0 0 0 0 0 0 127 0" result="hardAlpha"/>
<feOffset dy="0.2"/>
<feGaussianBlur stdDeviation="0.2"/>
<feComposite in2="hardAlpha" operator="out"/>
<feColorMatrix type="matrix" values="0 0 0 0 0 0 0 0 0 0 0 0 0 0 0 0 0 0 0.25 0"/>
<feBlend mode="normal" in2="BackgroundImageFix" result="effect1_dropShadow_46782_44151"/>
<feBlend mode="normal" in="SourceGraphic" in2="effect1_dropShadow_46782_44151" result="shape"/>
</filter>
<linearGradient id="paint0_linear_46782_44151" x1="63.9133" y1="14.0859" x2="63.9133" y2="65.7445" gradientUnits="userSpaceOnUse">
<stop stop-color="white"/>
<stop offset="1" stop-color="#ECEFF0"/>
</linearGradient>
<linearGradient id="paint1_linear_46782_44151" x1="63.9133" y1="14.0859" x2="63.9133" y2="65.7445" gradientUnits="userSpaceOnUse">
<stop stop-color="#DADADA"/>
<stop offset="1" stop-color="#A5A5A5"/>
</linearGradient>
</defs>
</svg>
