<svg width="24" height="23" viewBox="0 0 24 23" fill="none" xmlns="http://www.w3.org/2000/svg">
<path d="M0 4.66856C0 2.09018 2.09019 0 4.66856 0H18.6743C21.2526 0 23.3428 2.09019 23.3428 4.66856V18C23.3428 20.5784 21.2526 22.6686 18.6742 22.6686H4.66855C2.09018 22.6686 0 20.5784 0 18V4.66856Z" fill="#E5E5E5"/>
<g clip-path="url(#clip0_1437_2555)">
<path d="M11.334 20.334C16.3215 20.334 20.334 16.3215 20.334 11.334C20.334 6.34645 16.3215 2.33398 11.334 2.33398C6.34645 2.33398 2.33398 6.34645 2.33398 11.334C2.33398 16.3215 6.34645 20.334 11.334 20.334Z" fill="#2775CA"/>
<path d="M13.8082 12.7582C13.8082 11.4457 13.0207 10.9957 11.4457 10.8083C10.3207 10.6582 10.0957 10.3583 10.0957 9.8332C10.0957 9.30814 10.4707 8.97073 11.2207 8.97073C11.8957 8.97073 12.2707 9.19573 12.4582 9.75823C12.4957 9.87073 12.6082 9.9457 12.7207 9.9457H13.3206C13.4707 9.9457 13.5832 9.8332 13.5832 9.68326V9.64573C13.4331 8.8207 12.7581 8.18323 11.8957 8.10826V7.20826C11.8957 7.05823 11.7832 6.94573 11.5957 6.9082H11.0332C10.8832 6.9082 10.7707 7.0207 10.7331 7.20826V8.07073C9.60814 8.22076 8.8957 8.97073 8.8957 9.90826C8.8957 11.1458 9.64567 11.6332 11.2207 11.8208C12.2707 12.0082 12.6082 12.2332 12.6082 12.8333C12.6082 13.4333 12.0831 13.8458 11.3707 13.8458C10.3956 13.8458 10.0581 13.4332 9.94564 12.8707C9.9082 12.7208 9.7957 12.6457 9.6832 12.6457H9.04564C8.8957 12.6457 8.7832 12.7582 8.7832 12.9082V12.9458C8.93314 13.8832 9.53317 14.5582 10.7707 14.7458V15.6458C10.7707 15.7957 10.8832 15.9082 11.0706 15.9457H11.6331C11.7832 15.9457 11.8957 15.8332 11.9332 15.6458V14.7458C13.0582 14.5582 13.8082 13.7707 13.8082 12.7582Z" fill="white"/>
<path d="M9.42222 16.6964C6.49722 15.6465 4.99719 12.384 6.08475 9.49642C6.64725 7.92142 7.88475 6.72145 9.42222 6.15895C9.57225 6.08398 9.64722 5.97148 9.64722 5.78392V5.25895C9.64722 5.10892 9.57225 4.99642 9.42222 4.95898C9.38469 4.95898 9.30972 4.95898 9.27219 4.99642C5.70972 6.12142 3.75969 9.90898 4.88469 13.4715C5.55969 15.5714 7.17222 17.184 9.27219 17.859C9.42222 17.9339 9.57225 17.859 9.60969 17.7089C9.64722 17.6715 9.64722 17.634 9.64722 17.559V17.0339C9.64722 16.9214 9.53472 16.7715 9.42222 16.6964ZM13.3972 4.99642C13.2472 4.92145 13.0972 4.99642 13.0597 5.14645C13.0222 5.18398 13.0222 5.22142 13.0222 5.29648V5.82145C13.0222 5.97148 13.1347 6.12142 13.2472 6.19648C16.1722 7.24642 17.6722 10.5089 16.5847 13.3965C16.0222 14.9715 14.7847 16.1715 13.2472 16.734C13.0972 16.8089 13.0222 16.9214 13.0222 17.109V17.634C13.0222 17.784 13.0972 17.8965 13.2472 17.9339C13.2847 17.9339 13.3597 17.9339 13.3972 17.8965C16.9597 16.7715 18.9097 12.9839 17.7847 9.42145C17.1097 7.28395 15.4597 5.67142 13.3972 4.99642Z" fill="white"/>
</g>
<defs>
<clipPath id="clip0_1437_2555">
<rect width="18" height="18" fill="white" transform="translate(2.33398 2.33398)"/>
</clipPath>
</defs>
</svg>
